<svg width="16" height="12" viewBox="0 0 16 12" fill="none" xmlns="http://www.w3.org/2000/svg">
<path d="M4 0H12.0011V12H4V0Z" fill="white"/>
<path d="M0 0H3.99945V12H0V0ZM12.0006 0H16V12H12.0028L12.0006 0ZM5.19862 5.79844L4.88502 5.91094L6.33154 7.25859C6.44196 7.60313 6.294 7.70391 6.19903 7.88672L7.76701 7.67578L7.72947 9.35156L8.05631 9.34219L7.98344 7.67813L9.55583 7.87734C9.45866 7.65938 9.37253 7.54453 9.46087 7.19766L10.9052 5.92031L10.6534 5.82187C10.4458 5.65312 10.7418 5.00859 10.7859 4.60078C10.7859 4.60078 9.94451 4.90781 9.8893 4.74609L9.67288 4.30781L8.90656 5.20312C8.82264 5.22422 8.7873 5.18906 8.76743 5.11406L9.12077 3.24375L8.55983 3.57891C8.51346 3.60234 8.46708 3.58359 8.43616 3.525L7.8951 2.37656L7.33858 3.56953C7.29662 3.61172 7.25466 3.61641 7.21932 3.58828L6.68489 3.26953L7.00731 5.12344C6.98081 5.19844 6.91898 5.21719 6.84831 5.17734L6.11291 4.29375C6.01794 4.45781 5.9539 4.72266 5.82581 4.78359C5.69993 4.83984 5.27371 4.67109 4.98882 4.60547C5.08599 4.97813 5.39075 5.59688 5.19862 5.80078V5.79844Z" fill="#FF0000"/>
</svg>
