<svg width="31" height="23" viewBox="0 0 31 23" fill="none" xmlns="http://www.w3.org/2000/svg">
<path d="M10.9803 7.46484H6.99121V8.26364H10.9803V7.46484Z" fill="#AD1E23"/>
<path d="M20.9643 11.375H6.5957V12.1738H20.9643V11.375Z" fill="#AD1E23"/>
<path d="M8.9921 14.6484H6.5957V15.4472H8.9921V14.6484Z" fill="#AD1E23"/>
<path d="M14.9921 14.6484H12.5957V15.4472H14.9921V14.6484Z" fill="#AD1E23"/>
<path d="M20.9745 14.6484H18.5781V15.4472H20.9745V14.6484Z" fill="#AD1E23"/>
<path d="M21.8231 6.78516C21.5309 6.78516 21.263 6.86796 21.0292 7.00434C20.7857 6.86309 20.5129 6.78516 20.2255 6.78516C19.3439 6.78516 18.6279 7.50115 18.6279 8.38275C18.6279 9.26436 19.3439 9.98035 20.2255 9.98035C20.5129 9.98035 20.7857 9.90242 21.0292 9.76117C21.263 9.89755 21.5309 9.98035 21.8231 9.98035C22.7047 9.98035 23.4207 9.26436 23.4207 8.38275C23.4207 7.50115 22.7047 6.78516 21.8231 6.78516ZM20.4301 9.15233C20.3619 9.17181 20.2937 9.18155 20.2255 9.18155C19.7872 9.18155 19.4267 8.82112 19.4267 8.38275C19.4267 7.94439 19.7872 7.58396 20.2255 7.58396C20.2937 7.58396 20.3668 7.59857 20.4301 7.61318C20.3035 7.8421 20.2255 8.10025 20.2255 8.38275C20.2255 8.66526 20.3035 8.9234 20.4301 9.15233ZM21.8231 9.18155C21.3848 9.18155 21.0243 8.82112 21.0243 8.38275C21.0243 7.94439 21.3848 7.58396 21.8231 7.58396C22.2615 7.58396 22.6219 7.94439 22.6219 8.38275C22.6219 8.82112 22.2615 9.18155 21.8231 9.18155Z" fill="#AD1E23"/>
<rect x="4.5957" y="3.95703" width="21.6825" height="14.455" rx="2" stroke="#AD1E23"/>
</svg>
