<svg width="11" height="10" viewBox="0 0 11 10" fill="none" xmlns="http://www.w3.org/2000/svg">
<path d="M9.96282 0.343894C9.89577 0.276706 9.81613 0.223401 9.72845 0.187031C9.64077 0.150661 9.54679 0.131941 9.45186 0.131941C9.35694 0.131941 9.26295 0.150661 9.17528 0.187031C9.0876 0.223401 9.00796 0.276706 8.94091 0.343894L5.39681 3.88075L1.85271 0.336646C1.78561 0.269546 1.70595 0.216319 1.61828 0.180005C1.5306 0.143691 1.43664 0.125 1.34175 0.125C1.24685 0.125 1.15289 0.143691 1.06522 0.180005C0.977546 0.216319 0.897887 0.269546 0.830787 0.336646C0.763687 0.403746 0.71046 0.483406 0.674145 0.571076C0.637831 0.658747 0.619141 0.752712 0.619141 0.847606C0.619141 0.9425 0.637831 1.03646 0.674145 1.12413C0.71046 1.21181 0.763687 1.29146 0.830787 1.35856L4.37489 4.90267L0.830787 8.44676C0.763687 8.51386 0.71046 8.59352 0.674145 8.6812C0.637831 8.76887 0.619141 8.86283 0.619141 8.95772C0.619141 9.05262 0.637831 9.14658 0.674145 9.23425C0.71046 9.32192 0.763687 9.40158 0.830787 9.46868C0.897887 9.53578 0.977546 9.58901 1.06522 9.62532C1.15289 9.66164 1.24685 9.68033 1.34175 9.68033C1.43664 9.68033 1.5306 9.66164 1.61828 9.62532C1.70595 9.58901 1.78561 9.53578 1.85271 9.46868L5.39681 5.92458L8.94091 9.46868C9.00801 9.53578 9.08767 9.58901 9.17534 9.62532C9.26301 9.66164 9.35697 9.68033 9.45186 9.68033C9.54676 9.68033 9.64072 9.66164 9.72839 9.62532C9.81606 9.58901 9.89572 9.53578 9.96282 9.46868C10.0299 9.40158 10.0832 9.32192 10.1195 9.23425C10.1558 9.14658 10.1745 9.05262 10.1745 8.95772C10.1745 8.86283 10.1558 8.76887 10.1195 8.6812C10.0832 8.59352 10.0299 8.51386 9.96282 8.44676L6.41872 4.90267L9.96282 1.35856C10.2382 1.08315 10.2382 0.619305 9.96282 0.343894Z" fill="#F37E20"/>
</svg>
