<svg width="37" height="38" viewBox="0 0 37 38" fill="none" xmlns="http://www.w3.org/2000/svg">
<path d="M18.4872 37.3588C13.063 37.3588 7.6389 37.3504 2.21467 37.3724C1.69263 37.3746 1.46312 37.2231 1.33906 36.7261C0.895333 34.9493 0.633481 33.189 1.45758 31.4402C2.23106 29.7991 3.5565 28.712 5.08263 27.8372C7.92579 26.2073 11.0069 25.241 14.2097 24.6123C14.5816 24.5394 14.7318 24.6684 14.9114 24.9435C15.8061 26.316 16.7197 27.6763 17.6267 29.0408C17.7185 29.1787 17.8044 29.3211 17.9041 29.4534C18.3672 30.0678 18.7042 30.0608 19.1316 29.4221C19.7663 28.4737 20.395 27.5212 21.0257 26.57C21.4123 25.987 21.7844 25.3938 22.1937 24.8273C22.285 24.7012 22.5245 24.5765 22.6634 24.6054C26.2399 25.3519 29.6759 26.4787 32.7589 28.493C34.2792 29.4863 35.4816 30.7643 35.9279 32.5849C36.3097 34.1418 36.0025 35.6532 35.4553 37.1195C35.4056 37.2531 35.0728 37.3476 34.8708 37.3489C32.1588 37.3638 29.4467 37.3588 26.7345 37.3588H18.4872ZM18.5145 32.9286C18.3613 32.7089 18.2649 32.5758 18.1738 32.4391C16.9368 30.5859 15.704 28.7301 14.4627 26.8799C13.9642 26.1371 13.7862 26.0787 12.9483 26.3026C12.5571 26.4073 12.1629 26.5021 11.7736 26.613C9.46056 27.2711 7.19827 28.0606 5.21566 29.4605C3.33828 30.7861 1.90353 32.3619 2.38547 34.9294C2.54686 35.7888 2.64854 35.9224 3.51684 35.9224H32.8999C33.0107 35.9224 33.4149 35.9105 33.5085 35.9097C34.1554 35.9042 34.4344 35.6786 34.5055 35.3646C34.7915 34.0632 34.89 32.7213 33.9394 31.6374C33.2307 30.8289 32.4367 30.0555 31.557 29.4431C29.5253 28.0283 27.2069 27.2107 24.8323 26.5666C23.0207 26.0752 23.2931 25.7561 22.1033 27.5426C20.9214 29.318 19.7381 31.0926 18.5145 32.9286ZM22.21 21.9897C20.8719 22.9167 19.3956 23.3185 17.8129 23.1247C13.9246 22.6484 11.6753 19.8863 10.8616 16.6248C10.7683 16.2508 10.705 15.8686 10.644 15.4876C10.5677 15.011 10.2959 14.7847 9.81557 14.7861C8.85556 14.789 7.8951 14.7679 6.93598 14.796C6.54685 14.8074 6.42856 14.6567 6.39145 14.3012C6.02957 10.8381 6.69351 7.66597 9.05582 4.98503C10.454 3.39834 12.2103 2.31978 14.2045 1.67299C18.8799 0.156351 23.1857 0.930305 26.9724 4.05109C29.2864 5.95808 30.449 8.53107 30.6549 11.5177C30.7378 12.7204 30.6447 13.9177 30.2116 15.0514C29.6542 16.5109 28.4796 17.3546 27.0968 17.9362C24.5796 18.9949 21.9669 19.2203 19.2855 18.7626C19.1845 18.7389 19.0767 18.702 18.9587 18.6668C18.5948 18.5355 18.3478 18.2263 18.4747 17.8719C18.5965 17.532 18.9063 17.5197 19.1532 17.5496C19.4786 17.579 19.5726 17.6199 19.8712 17.6602C22.0434 17.9534 24.2031 17.9196 26.2177 16.9714C28.7046 15.8009 29.999 13.7819 29.2908 10.8559C28.2723 6.64828 25.6714 3.80305 21.5669 2.59422C17.1769 1.30143 13.3091 2.5139 10.1061 5.78992C8.82499 7.10017 7.90529 8.61449 7.60434 10.4321C7.47098 11.2382 7.49291 12.074 7.49158 12.8965C7.49092 13.3793 7.80029 13.6134 8.28788 13.6071C8.74933 13.6012 9.2109 13.6046 9.67246 13.6028C10.3151 13.6005 10.554 13.3832 10.646 12.7393C10.9317 10.7367 11.6947 8.93645 13.0939 7.46488C16.7168 3.65456 22.9216 4.68152 25.3169 9.46391C25.8038 10.4365 26.2157 11.5029 26.3426 12.6215C26.1805 12.6389 26.0287 12.6373 25.9029 12.6423C25.3768 12.663 25.1539 12.5374 25.0263 11.9604C24.6127 10.0914 23.5496 8.60665 22.0233 7.46223C19.5828 5.63237 16.3831 5.95377 14.0905 8.23895C10.3253 11.9922 11.0934 18.6081 15.6026 21.2336C16.4628 21.7347 17.3923 21.9956 18.3948 21.9909C19.6667 21.9852 20.9384 21.9897 22.21 21.9897Z" fill="#AD1E23"/>
</svg>
