<svg width="111" height="30" viewBox="0 0 111 30" fill="none" xmlns="http://www.w3.org/2000/svg">
<path d="M7.21787 9.075C7.23932 8.23654 7.93067 7.571 8.76934 7.58147L23.5007 7.76531C24.3524 7.77594 25.0321 8.47898 25.014 9.33061L24.6814 24.9758C24.6649 25.7533 24.0687 26.3952 23.2945 26.4691L8.45474 27.885C7.53915 27.9724 6.7533 27.2394 6.77681 26.3199L7.21787 9.075Z" fill="#F99D27"/>
<path d="M11.2096 8.16623C11.2297 7.4159 11.8488 6.82086 12.5993 6.83058L25.9266 7.00312C26.6895 7.013 27.2978 7.64317 27.2809 8.40593L26.9916 21.4128C26.9761 22.1092 26.4415 22.6835 25.748 22.7487L12.3243 24.011C11.5046 24.0881 10.802 23.431 10.8239 22.608L11.2096 8.16623Z" fill="#B02A30"/>
<path d="M29.577 13.1295H31.7552L31.1782 20.443H29L29.577 13.1295ZM32.087 9.69629L31.9283 11.7447H29.5914L29.7501 9.69629H32.087Z" fill="#3D3D3D"/>
<path d="M41.4837 13.1295L40.9355 20.0247C40.8394 21.2844 40.4451 22.2077 39.7527 22.7943C39.0699 23.3809 38.1034 23.6742 36.8532 23.6742C35.6511 23.6742 34.6125 23.4482 33.7374 22.9962L34.2134 21.3662C34.6462 21.6066 35.0789 21.7797 35.5117 21.8855C35.9541 21.9913 36.4205 22.0442 36.9109 22.0442C37.4783 22.0442 37.9159 21.8999 38.2236 21.6114C38.541 21.3325 38.7237 20.8854 38.7718 20.2699L38.8439 19.2746C38.6035 19.5823 38.2909 19.8227 37.9063 19.9958C37.5216 20.1593 37.0888 20.241 36.608 20.241C35.9829 20.241 35.4348 20.1016 34.9635 19.8227C34.4923 19.5438 34.1221 19.1495 33.8528 18.6398C33.5932 18.1302 33.4633 17.5387 33.4633 16.8656C33.4633 16.1251 33.6076 15.4567 33.8961 14.8605C34.1942 14.2642 34.6077 13.7978 35.1366 13.4612C35.6656 13.115 36.2762 12.9419 36.9686 12.9419C38.0072 12.9419 38.7718 13.3218 39.2622 14.0815L39.3343 13.1295H41.4837ZM37.3148 18.5821C37.863 18.5821 38.2957 18.3898 38.6131 18.0051C38.9304 17.6205 39.0891 17.106 39.0891 16.4617C39.0891 15.8558 38.9401 15.3942 38.6419 15.0769C38.3534 14.7595 37.9399 14.6008 37.4014 14.6008C36.8532 14.6008 36.4205 14.798 36.1031 15.1923C35.7858 15.5769 35.6271 16.1058 35.6271 16.779C35.6271 17.3464 35.7762 17.7888 36.0743 18.1061C36.3724 18.4235 36.7859 18.5821 37.3148 18.5821Z" fill="#3D3D3D"/>
<path d="M43.8319 13.1295H46.0101L45.4331 20.443H43.2549L43.8319 13.1295ZM46.3419 9.69629L46.1832 11.7447H43.8464L44.005 9.69629H46.3419Z" fill="#3D3D3D"/>
<path d="M50.7475 17.6012C50.7187 18.0051 50.8004 18.3033 50.9927 18.4956C51.1851 18.6879 51.4495 18.7841 51.7861 18.7841C52.0073 18.7841 52.2525 18.7456 52.5218 18.6687L52.3776 20.3564C52.0506 20.4911 51.6275 20.5584 51.1081 20.5584C50.2811 20.5584 49.6464 20.3372 49.204 19.8948C48.7713 19.4525 48.5549 18.8274 48.5549 18.0196C48.5549 17.8561 48.5597 17.7311 48.5693 17.6445L48.8001 14.7595H47.4153L47.5451 13.1295H48.93L49.0598 11.4129L51.2957 10.706L51.1081 13.1295H52.969L52.8392 14.7595H50.9783L50.7475 17.6012Z" fill="#3D3D3D"/>
<path d="M61.9772 13.1295L61.4002 20.443H59.2509L59.323 19.5054C59.0826 19.8419 58.7701 20.1016 58.3854 20.2843C58.0007 20.467 57.5776 20.5584 57.116 20.5584C56.5005 20.5584 55.9572 20.4189 55.4859 20.1401C55.0147 19.8516 54.6493 19.4428 54.3896 18.9139C54.13 18.385 54.0002 17.7599 54.0002 17.0387C54.0002 16.2405 54.1444 15.5336 54.4329 14.9182C54.731 14.2931 55.1445 13.8074 55.6735 13.4612C56.2024 13.115 56.8082 12.9419 57.491 12.9419C58.0007 12.9419 58.4479 13.0429 58.8326 13.2449C59.2172 13.4372 59.525 13.7209 59.7558 14.0959L59.8279 13.1295H61.9772ZM57.8372 18.9139C58.3662 18.9139 58.7845 18.7072 59.0922 18.2936C59.3999 17.8801 59.5538 17.3272 59.5538 16.6348C59.5538 15.9616 59.4144 15.4567 59.1355 15.1201C58.8566 14.7739 58.4527 14.6008 57.9238 14.6008C57.3756 14.6008 56.9429 14.8124 56.6255 15.2355C56.3178 15.649 56.1639 16.2116 56.1639 16.9233C56.1639 17.5676 56.3082 18.0628 56.5967 18.409C56.8852 18.7456 57.2987 18.9139 57.8372 18.9139Z" fill="#3D3D3D"/>
<path d="M64.5865 9.82611H66.7647L65.9136 20.443H63.7354L64.5865 9.82611Z" fill="#3D3D3D"/>
<path d="M15.7934 10.1719H19.7603C20.7893 10.1719 21.6788 10.3642 22.4289 10.7489C23.179 11.1335 23.756 11.6865 24.1599 12.4078C24.5638 13.129 24.7658 13.9801 24.7658 14.961C24.7658 16.115 24.5446 17.1007 24.1022 17.9182C23.6599 18.7356 23.0155 19.3607 22.1693 19.7934C21.3326 20.2262 20.3277 20.4425 19.1544 20.4425H15L15.7934 10.1719ZM18.9669 18.625C20.1594 18.625 21.0489 18.3221 21.6355 17.7162C22.2222 17.1103 22.5155 16.1871 22.5155 14.9466C22.5155 13.9849 22.2558 13.254 21.7365 12.754C21.2172 12.2443 20.4623 11.9894 19.4718 11.9894H17.9283L17.3946 18.625H18.9669Z" fill="white"/>
<path d="M74.4038 16.8359C74.7525 16.9355 75.0234 17.1223 75.2164 17.3963C75.4094 17.6703 75.5059 17.9941 75.5059 18.3677C75.5059 18.9716 75.2849 19.4386 74.8428 19.7687C74.4069 20.0987 73.8154 20.2637 73.0682 20.2637H69.8739L70.3876 13.6136H73.3577C74.08 13.6136 74.6311 13.7662 75.0109 14.0713C75.3907 14.3764 75.5806 14.7811 75.5806 15.2855C75.5806 16.0264 75.1884 16.5432 74.4038 16.8359ZM73.0028 16.3222C73.4075 16.3222 73.7033 16.2568 73.8901 16.1261C74.0769 15.9953 74.1703 15.7836 74.1703 15.4909C74.1703 15.2419 74.0831 15.0551 73.9088 14.9305C73.7407 14.7998 73.476 14.7344 73.1149 14.7344H71.7419L71.6112 16.3222H73.0028ZM72.9561 19.1429C73.3671 19.1429 73.666 19.0775 73.8528 18.9467C74.0396 18.8097 74.133 18.5856 74.133 18.2743C74.133 17.9941 74.0458 17.7855 73.8714 17.6485C73.7033 17.5115 73.4356 17.443 73.0682 17.443H71.5271L71.387 19.1429H72.9561ZM81.8505 15.5283L81.4769 20.2637H80.0852L80.1319 19.6566C79.9763 19.8745 79.7739 20.0426 79.5248 20.1609C79.2758 20.2792 79.0018 20.3384 78.7029 20.3384C78.3044 20.3384 77.9526 20.2481 77.6475 20.0675C77.3424 19.8807 77.1058 19.6161 76.9376 19.2736C76.7695 18.9312 76.6855 18.5264 76.6855 18.0594C76.6855 17.5426 76.7789 17.085 76.9657 16.6865C77.1587 16.2817 77.4264 15.9673 77.7689 15.7431C78.1114 15.519 78.5036 15.4069 78.9457 15.4069C79.2758 15.4069 79.5653 15.4723 79.8144 15.603C80.0634 15.7276 80.2627 15.9112 80.4121 16.1541L80.4588 15.5283H81.8505ZM79.1699 19.2736C79.5124 19.2736 79.7832 19.1398 79.9825 18.872C80.1817 18.6043 80.2814 18.2462 80.2814 17.7979C80.2814 17.3621 80.1911 17.0352 80.0105 16.8172C79.8299 16.5931 79.5684 16.481 79.2259 16.481C78.871 16.481 78.5908 16.618 78.3853 16.8919C78.1861 17.1597 78.0865 17.5239 78.0865 17.9847C78.0865 18.4019 78.1799 18.7226 78.3667 18.9467C78.5535 19.1647 78.8212 19.2736 79.1699 19.2736ZM86.3232 15.4069C86.8463 15.4069 87.2417 15.5532 87.5094 15.8459C87.7834 16.1385 87.9204 16.565 87.9204 17.1254C87.9204 17.2624 87.9172 17.3652 87.911 17.4337L87.6869 20.2637H86.2765L86.5007 17.499C86.5069 17.4617 86.51 17.4056 86.51 17.3309C86.51 17.0632 86.4446 16.8608 86.3139 16.7238C86.1894 16.5806 86.0026 16.509 85.7535 16.509C85.4359 16.509 85.19 16.6086 85.0156 16.8079C84.8413 17.0009 84.7385 17.2687 84.7074 17.6111L84.4926 20.2637H83.0823L83.3531 16.8826C83.378 16.6149 83.3905 16.3129 83.3905 15.9766C83.3905 15.7774 83.3874 15.6279 83.3811 15.5283H84.7167L84.7354 16.1821C84.8911 15.9393 85.1059 15.7494 85.3799 15.6124C85.6601 15.4754 85.9745 15.4069 86.3232 15.4069ZM92.3595 17.8259L94.2928 20.2637H92.5836L90.8651 18.1342L90.697 20.2637H89.2866L89.8283 13.3895H91.2387L90.9118 17.5644L92.8078 15.5376H94.545L92.3595 17.8259ZM95.4813 15.5283H96.8916L96.518 20.2637H95.1077L95.4813 15.5283ZM97.1064 13.3054L97.0037 14.6317H95.4906L95.5934 13.3054H97.1064ZM101.369 15.4069C101.892 15.4069 102.288 15.5532 102.556 15.8459C102.829 16.1385 102.966 16.565 102.966 17.1254C102.966 17.2624 102.963 17.3652 102.957 17.4337L102.733 20.2637H101.323L101.547 17.499C101.553 17.4617 101.556 17.4056 101.556 17.3309C101.556 17.0632 101.491 16.8608 101.36 16.7238C101.235 16.5806 101.049 16.509 100.8 16.509C100.482 16.509 100.236 16.6086 100.062 16.8079C99.8874 17.0009 99.7847 17.2687 99.7535 17.6111L99.5387 20.2637H98.1284L98.3992 16.8826C98.4241 16.6149 98.4366 16.3129 98.4366 15.9766C98.4366 15.7774 98.4335 15.6279 98.4272 15.5283H99.7629L99.7815 16.1821C99.9372 15.9393 100.152 15.7494 100.426 15.6124C100.706 15.4754 101.021 15.4069 101.369 15.4069ZM109.479 15.5283L109.124 19.9928C109.062 20.8085 108.807 21.4063 108.358 21.7861C107.916 22.1659 107.29 22.3558 106.481 22.3558C105.703 22.3558 105.03 22.2095 104.463 21.9168L104.772 20.8614C105.052 21.0171 105.332 21.1292 105.612 21.1977C105.899 21.2662 106.201 21.3004 106.518 21.3004C106.886 21.3004 107.169 21.207 107.368 21.0202C107.574 20.8396 107.692 20.5501 107.723 20.1516L107.77 19.5071C107.614 19.7064 107.412 19.8621 107.163 19.9741C106.914 20.08 106.633 20.1329 106.322 20.1329C105.917 20.1329 105.563 20.0426 105.257 19.8621C104.952 19.6815 104.713 19.4262 104.538 19.0962C104.37 18.7662 104.286 18.3832 104.286 17.9474C104.286 17.4679 104.379 17.0352 104.566 16.6491C104.759 16.263 105.027 15.9611 105.369 15.7431C105.712 15.519 106.107 15.4069 106.556 15.4069C107.228 15.4069 107.723 15.6528 108.041 16.1447L108.087 15.5283H109.479ZM106.78 19.0588C107.135 19.0588 107.415 18.9343 107.62 18.6852C107.826 18.4362 107.929 18.103 107.929 17.6858C107.929 17.2936 107.832 16.9947 107.639 16.7892C107.452 16.5837 107.185 16.481 106.836 16.481C106.481 16.481 106.201 16.6086 105.995 16.8639C105.79 17.113 105.687 17.4555 105.687 17.8913C105.687 18.2587 105.784 18.5451 105.977 18.7506C106.17 18.9561 106.437 19.0588 106.78 19.0588Z" fill="#3D3D3D"/>
<path d="M4.98434 10.4168C4.93871 8.83236 5.34629 6.17992 8.56295 5.81354" stroke="#B9B7B7" stroke-linecap="round" stroke-linejoin="round"/>
<path d="M2.91889 10.1673C2.99074 7.97825 3.95142 3.88084 8.723 3.81881" stroke="#B9B7B7" stroke-linecap="round" stroke-linejoin="round"/>
<path d="M1.16511 9.95447C0.814058 7.08027 2.85816 1.61091 8.9669 1.83318" stroke="#B9B7B7" stroke-linecap="round" stroke-linejoin="round"/>
</svg>
