<svg width="16" height="12" viewBox="0 0 16 12" fill="none" xmlns="http://www.w3.org/2000/svg">
<rect width="16" height="12" fill="#41479B"/>
<path d="M8.06802 2.03151L8.17628 2.35606L8.51838 2.35872C8.56269 2.35906 8.58104 2.41557 8.54541 2.4419L8.27019 2.64514L8.37337 2.9713C8.38673 3.0135 8.33866 3.04849 8.3026 3.02271L8.02429 2.82375L7.74598 3.02271C7.70996 3.04846 7.66186 3.01354 7.67522 2.9713L7.7784 2.64514L7.50318 2.4419C7.46755 2.41557 7.4859 2.35906 7.53021 2.35872L7.87231 2.35606L7.98056 2.03151C7.99454 1.9895 8.05402 1.9895 8.06802 2.03151Z" fill="#FFE15A"/>
<path d="M8.06802 9.00029L8.17628 9.32483L8.51838 9.32749C8.56269 9.32783 8.58104 9.38434 8.54541 9.41067L8.27019 9.61391L8.37337 9.94008C8.38673 9.98228 8.33866 10.0173 8.3026 9.99148L8.02429 9.79253L7.74598 9.99148C7.70996 10.0172 7.66186 9.98231 7.67522 9.94008L7.7784 9.61391L7.50318 9.41067C7.46755 9.38434 7.4859 9.32783 7.53021 9.32749L7.87231 9.32483L7.98056 9.00029C7.99454 8.95824 8.05402 8.95824 8.06802 9.00029Z" fill="#FFE15A"/>
<path d="M11.5524 5.51586L11.6607 5.84041L12.0028 5.84307C12.0471 5.84341 12.0654 5.89992 12.0298 5.92625L11.7546 6.12949L11.8577 6.45566C11.8711 6.49786 11.823 6.53284 11.787 6.50706L11.5087 6.30811L11.2304 6.50706C11.1943 6.53281 11.1462 6.49789 11.1596 6.45566L11.2628 6.12949L10.9876 5.92625C10.9519 5.89992 10.9703 5.84341 11.0146 5.84307L11.3567 5.84041L11.4649 5.51586C11.4789 5.47388 11.5384 5.47388 11.5524 5.51586Z" fill="#FFE15A"/>
<path d="M4.58365 5.51586L4.6919 5.84041L5.034 5.84307C5.07831 5.84341 5.09666 5.89992 5.06104 5.92625L4.78581 6.12949L4.88899 6.45566C4.90235 6.49786 4.85428 6.53284 4.81823 6.50706L4.53992 6.30811L4.26161 6.50706C4.22558 6.53281 4.17748 6.49789 4.19084 6.45566L4.29402 6.12949L4.0188 5.92625C3.98317 5.89992 4.00152 5.84341 4.04583 5.84307L4.38793 5.84041L4.49619 5.51586C4.51019 5.47388 4.56967 5.47388 4.58365 5.51586Z" fill="#FFE15A"/>
<path d="M5.10513 3.69948L5.21339 4.02403L5.55549 4.02669C5.5998 4.02703 5.61815 4.08354 5.58252 4.10987L5.3073 4.3131L5.41048 4.63927C5.42384 4.68147 5.37577 4.71646 5.33971 4.69068L5.0614 4.49172L4.78309 4.69068C4.74707 4.71643 4.69897 4.6815 4.71233 4.63927L4.81551 4.3131L4.54028 4.10987C4.50466 4.08354 4.52301 4.02703 4.56732 4.02669L4.90942 4.02403L5.01767 3.69948C5.03168 3.65746 5.0911 3.65746 5.10513 3.69948Z" fill="#FFE15A"/>
<path d="M11.1422 7.17993L11.2505 7.50448L11.5926 7.50714C11.6369 7.50747 11.6553 7.56398 11.6196 7.59031L11.3444 7.79355L11.4476 8.11972C11.4609 8.16198 11.4129 8.1969 11.3768 8.17112L11.0985 7.97217L10.8202 8.17112C10.7842 8.19687 10.7361 8.16195 10.7494 8.11972L10.8526 7.79355L10.5774 7.59031C10.5418 7.56398 10.5601 7.50747 10.6044 7.50714L10.9465 7.50448L11.0548 7.17993C11.0688 7.13794 11.1282 7.13794 11.1422 7.17993Z" fill="#FFE15A"/>
<path d="M9.86688 2.41821L9.97514 2.74276L10.3172 2.74542C10.3615 2.74575 10.3799 2.80227 10.3443 2.8286L10.069 3.03183L10.1722 3.358C10.1856 3.4002 10.1375 3.43518 10.1015 3.4094L9.82315 3.21045L9.54481 3.4094C9.50879 3.43515 9.46068 3.40023 9.47405 3.358L9.57723 3.03183L9.302 2.8286C9.26638 2.80227 9.28473 2.74575 9.32904 2.74542L9.67114 2.74276L9.77939 2.41821C9.7934 2.37622 9.85281 2.37622 9.86688 2.41821Z" fill="#FFE15A"/>
<path d="M6.38248 8.45341L6.49073 8.77795L6.83283 8.78062C6.87714 8.78095 6.89549 8.83746 6.85986 8.86379L6.58464 9.06703L6.68782 9.3932C6.70118 9.4354 6.65311 9.47038 6.61706 9.4446L6.33875 9.24565L6.06044 9.4446C6.02441 9.47035 5.97631 9.43543 5.98967 9.3932L6.09285 9.06703L5.81763 8.86379C5.782 8.83746 5.80035 8.78095 5.84466 8.78062L6.18676 8.77799L6.29502 8.45344C6.30902 8.41136 6.3685 8.41136 6.38248 8.45341Z" fill="#FFE15A"/>
<path d="M11.0548 3.69948L10.9465 4.02403L10.6044 4.02669C10.5601 4.02703 10.5418 4.08354 10.5774 4.10987L10.8526 4.3131L10.7494 4.63927C10.7361 4.68147 10.7841 4.71646 10.8202 4.69068L11.0985 4.49172L11.3768 4.69068C11.4128 4.71643 11.4609 4.6815 11.4476 4.63927L11.3444 4.3131L11.6196 4.10987C11.6553 4.08354 11.6369 4.02703 11.5926 4.02669L11.2505 4.02403L11.1422 3.69948C11.1282 3.65746 11.0688 3.65746 11.0548 3.69948Z" fill="#FFE15A"/>
<path d="M5.01767 7.17993L4.90942 7.50448L4.56732 7.50714C4.52301 7.50747 4.50466 7.56398 4.54028 7.59031L4.81551 7.79355L4.71233 8.11972C4.69897 8.16198 4.74704 8.1969 4.78309 8.17112L5.0614 7.97217L5.33971 8.17112C5.37574 8.19687 5.42384 8.16195 5.41048 8.11972L5.3073 7.79355L5.58252 7.59031C5.61815 7.56398 5.5998 7.50747 5.55549 7.50714L5.21339 7.50448L5.10513 7.17993C5.0911 7.13794 5.03168 7.13794 5.01767 7.17993Z" fill="#FFE15A"/>
<path d="M6.29502 2.41821L6.18676 2.74276L5.84466 2.74542C5.80035 2.74575 5.782 2.80227 5.81763 2.8286L6.09285 3.03183L5.98967 3.358C5.97631 3.4002 6.02438 3.43518 6.06044 3.4094L6.33875 3.21045L6.61706 3.4094C6.65308 3.43515 6.70118 3.40023 6.68782 3.358L6.58464 3.03183L6.85986 2.8286C6.89549 2.80227 6.87714 2.74575 6.83283 2.74542L6.49073 2.74276L6.38248 2.41821C6.36844 2.37622 6.30902 2.37622 6.29502 2.41821Z" fill="#FFE15A"/>
<path d="M9.77939 8.45341L9.67114 8.77795L9.32904 8.78062C9.28473 8.78095 9.26638 8.83746 9.302 8.86379L9.57723 9.06703L9.47405 9.3932C9.46068 9.4354 9.50876 9.47038 9.54481 9.4446L9.82312 9.24565L10.1014 9.4446C10.1375 9.47035 10.1856 9.43543 10.1722 9.3932L10.069 9.06703L10.3442 8.86379C10.3799 8.83746 10.3615 8.78095 10.3172 8.78062L9.9751 8.77799L9.86685 8.45344C9.85281 8.41136 9.7934 8.41136 9.77939 8.45341Z" fill="#FFE15A"/>
</svg>
