<svg width="10" height="19" viewBox="0 0 10 19" fill="none" xmlns="http://www.w3.org/2000/svg">
<path d="M9.02905 0.941111L6.77865 0.9375C4.2504 0.9375 2.61653 2.61379 2.61653 5.2083V7.17743H0.353854C0.158332 7.17743 0 7.33594 0 7.53146V10.3845C0 10.58 0.158512 10.7384 0.353854 10.7384H2.61653V17.9375C2.61653 18.133 2.77487 18.2913 2.97039 18.2913H5.92254C6.11806 18.2913 6.2764 18.1328 6.2764 17.9375V10.7384H8.922C9.11752 10.7384 9.27585 10.58 9.27585 10.3845L9.27693 7.53146C9.27693 7.43758 9.23956 7.34767 9.1733 7.28124C9.10705 7.2148 9.01678 7.17743 8.9229 7.17743H6.2764V5.50817C6.2764 4.70586 6.46758 4.29857 7.51272 4.29857L9.02869 4.29803C9.22404 4.29803 9.38237 4.13952 9.38237 3.94418V1.29496C9.38237 1.0998 9.22422 0.941472 9.02905 0.941111Z" fill="white"/>
</svg>
