<svg width="11" height="19" viewBox="0 0 11 19" fill="none" xmlns="http://www.w3.org/2000/svg">
<path d="M9.96265 0.835642L7.71224 0.832031C5.18399 0.832031 3.55013 2.50832 3.55013 5.10283V7.07196H1.28745C1.09193 7.07196 0.933594 7.23047 0.933594 7.42599V10.279C0.933594 10.4746 1.09211 10.6329 1.28745 10.6329H3.55013V17.832C3.55013 18.0275 3.70846 18.1859 3.90398 18.1859H6.85613C7.05166 18.1859 7.20999 18.0274 7.20999 17.832V10.6329H9.85559C10.0511 10.6329 10.2094 10.4746 10.2094 10.279L10.2105 7.42599C10.2105 7.33211 10.1732 7.24221 10.1069 7.17577C10.0406 7.10933 9.95037 7.07196 9.85649 7.07196H7.20999V5.40271C7.20999 4.6004 7.40118 4.1931 8.44631 4.1931L9.96229 4.19256C10.1576 4.19256 10.316 4.03405 10.316 3.83871V1.1895C10.316 0.994335 10.1578 0.836003 9.96265 0.835642Z" fill="#f37e20"/>
</svg>
