<svg width="17" height="12" viewBox="0 0 17 12" fill="none" xmlns="http://www.w3.org/2000/svg">
<path fill-rule="evenodd" clip-rule="evenodd" d="M16.1422 12H0V0H16.1422V12Z" fill="#BA0000"/>
<path fill-rule="evenodd" clip-rule="evenodd" d="M7.59593 5.80625C7.59593 5.80625 6.38655 5.28594 6.55999 3.93594C6.72639 3.28672 7.02405 2.84375 7.56077 2.60234C7.8139 2.525 8.07171 2.48984 8.33421 2.46875C8.2639 2.53438 8.20765 2.6 8.17718 2.67969C8.12093 2.82969 8.16312 2.97031 8.24046 3.11328C8.33655 3.27734 8.39515 3.44609 8.4139 3.66641C8.43151 3.81654 8.40914 3.96865 8.34905 4.10736C8.28896 4.24606 8.19328 4.36642 8.07171 4.45625C7.91702 4.57578 7.73421 4.61797 7.58421 4.75391C7.46702 4.86641 7.39671 4.98125 7.37327 5.17813C7.36858 5.55547 7.46936 5.60938 7.59593 5.80625Z" fill="white"/>
<path fill-rule="evenodd" clip-rule="evenodd" d="M7.0957 3.85381V3.84766V3.85381Z" fill="#BA0000"/>
<path d="M7.0957 3.85381V3.84766" stroke="black" stroke-width="0.39375"/>
<path d="M7.44317 5.67109C6.97442 5.25625 7.01427 4.20859 7.37286 3.85938" stroke="#BA0000" stroke-width="0.39375"/>
<path fill-rule="evenodd" clip-rule="evenodd" d="M7.39102 3.61875L7.46836 3.74766L7.32773 3.68906L7.21758 3.80625L7.23633 3.65391L7.0957 3.59531L7.24805 3.56016L7.2668 3.41016L7.34414 3.53906L7.49883 3.50391" fill="#BA0000"/>
<path fill-rule="evenodd" clip-rule="evenodd" d="M7.69922 5.71496C7.69922 5.71496 7.83984 4.4048 9.18281 4.17511C9.85313 4.14699 10.3641 4.29933 10.7531 4.74464C10.9008 4.96261 11.0086 5.19933 11.1047 5.44308C11.0227 5.39621 10.9453 5.36105 10.8563 5.35636C10.6992 5.34464 10.575 5.42668 10.4625 5.54152C10.3311 5.68695 10.1673 5.79936 9.98438 5.86964C9.84616 5.93076 9.69426 5.95427 9.54403 5.93781C9.39381 5.92135 9.2506 5.86549 9.12891 5.77589C8.96953 5.66105 8.87578 5.49933 8.70234 5.39621C8.56139 5.31241 8.39432 5.28401 8.23359 5.31652C7.87031 5.42433 7.85156 5.53683 7.69922 5.71496Z" fill="white"/>
<path fill-rule="evenodd" clip-rule="evenodd" d="M9.49414 4.92969H9.50029H9.49414Z" fill="#BA0000"/>
<path d="M9.49414 4.92969H9.50029" stroke="black" stroke-width="0.39375"/>
<path d="M7.78516 5.53128C8.04766 4.9594 9.06016 4.69222 9.49844 4.93128" stroke="#BA0000" stroke-width="0.39375"/>
<path fill-rule="evenodd" clip-rule="evenodd" d="M9.80742 5.14062L9.70664 5.25078L9.7207 5.09844L9.58008 5.02812L9.72774 5.00469L9.7418 4.84766L9.82149 4.98828L9.97149 4.96016L9.87071 5.07031L9.94805 5.21094" fill="#BA0000"/>
<path fill-rule="evenodd" clip-rule="evenodd" d="M7.78711 5.81373C7.78711 5.81373 9.07617 5.53248 9.71836 6.73482C9.95977 7.3606 9.97618 7.89264 9.67852 8.40123C9.51914 8.61217 9.32696 8.78795 9.12774 8.95904C9.14649 8.86529 9.15352 8.78092 9.13008 8.69654C9.09258 8.54185 8.97539 8.45045 8.83008 8.38014C8.64977 8.30129 8.49073 8.1808 8.36602 8.02857C8.2649 7.91688 8.19498 7.78053 8.1633 7.63323C8.13162 7.48594 8.13929 7.3329 8.18555 7.18951C8.2418 7.00201 8.36602 6.86138 8.4082 6.66451C8.44328 6.50467 8.41736 6.33748 8.33555 6.19576C8.11758 5.88638 8.00508 5.90279 7.78711 5.81373Z" fill="white"/>
<path fill-rule="evenodd" clip-rule="evenodd" d="M9.10938 7.26953L9.11348 7.27363L9.10938 7.26953Z" fill="#BA0000"/>
<path d="M9.10938 7.26953L9.11348 7.27363" stroke="black" stroke-width="0.39375"/>
<path d="M7.99609 5.83594C8.61953 5.90391 9.19375 6.77813 9.10703 7.27266" stroke="#BA0000" stroke-width="0.39375"/>
<path fill-rule="evenodd" clip-rule="evenodd" d="M9.00742 7.63203L8.86914 7.57109L9.02149 7.53594L9.04024 7.37891L9.11289 7.5125L9.26524 7.47734L9.15977 7.59453L9.23008 7.72813L9.09414 7.66719L8.98867 7.78672" fill="#BA0000"/>
<path fill-rule="evenodd" clip-rule="evenodd" d="M7.76094 5.94375C7.76094 5.94375 8.39141 7.10156 7.4211 8.05313C6.88672 8.46094 6.38047 8.62735 5.80859 8.48438C5.5625 8.39063 5.33984 8.25703 5.11719 8.11172C5.21094 8.10469 5.29766 8.08828 5.37266 8.04141C5.50859 7.96172 5.5625 7.82344 5.59063 7.66641C5.61502 7.47058 5.68572 7.28338 5.79688 7.12031C5.87552 6.99164 5.98669 6.88598 6.11919 6.81397C6.25168 6.74196 6.40082 6.70616 6.55156 6.71016C6.74844 6.7125 6.91719 6.79453 7.11875 6.78047C7.28047 6.75938 7.40703 6.71484 7.55 6.57422C7.78438 6.28125 7.7375 6.17578 7.76094 5.94141V5.94375Z" fill="white"/>
<path fill-rule="evenodd" clip-rule="evenodd" d="M6.73252 7.625L6.73047 7.62911L6.73252 7.625Z" fill="#BA0000"/>
<path d="M6.73252 7.625L6.73047 7.62911" stroke="black" stroke-width="0.39375"/>
<path d="M7.79258 6.15234C7.90742 6.77109 7.22774 7.57031 6.72852 7.62187" stroke="#BA0000" stroke-width="0.39375"/>
<path fill-rule="evenodd" clip-rule="evenodd" d="M6.35547 7.63047L6.37656 7.48047L6.45391 7.61406L6.6086 7.59063L6.50078 7.69844L6.57813 7.83203L6.43516 7.76406L6.32734 7.87188L6.34609 7.72188L6.20312 7.65391" fill="#BA0000"/>
<path fill-rule="evenodd" clip-rule="evenodd" d="M7.61485 5.91953C7.61485 5.91953 6.7336 6.89922 5.51016 6.3039C4.94766 5.93594 4.62422 5.51172 4.57031 4.92578C4.57734 4.66094 4.62656 4.40781 4.68984 4.15234C4.72969 4.23672 4.77422 4.31172 4.84219 4.36797C4.96172 4.46875 5.11172 4.47344 5.27109 4.44766C5.46239 4.40577 5.66096 4.41059 5.85 4.46172C5.99802 4.49288 6.13516 4.56262 6.24753 4.66387C6.3599 4.76513 6.4435 4.8943 6.48985 5.03828C6.55313 5.22344 6.53203 5.41094 6.61406 5.59609C6.68438 5.74141 6.76875 5.84453 6.94922 5.93359C7.30547 6.05781 7.3875 5.97812 7.61485 5.92187V5.91953Z" fill="white"/>
<path fill-rule="evenodd" clip-rule="evenodd" d="M5.69356 5.50986L5.68945 5.50781L5.69356 5.50986Z" fill="#BA0000"/>
<path d="M5.69356 5.50986L5.68945 5.50781" stroke="black" stroke-width="0.39375"/>
<path d="M7.43438 6.01953C6.89063 6.33125 5.91094 5.95625 5.69531 5.50391" stroke="#BA0000" stroke-width="0.39375"/>
<path fill-rule="evenodd" clip-rule="evenodd" d="M5.56523 5.15781L5.71289 5.12734L5.61211 5.24453L5.68476 5.38281L5.54883 5.31719L5.44805 5.43438L5.46445 5.275L5.32617 5.20938L5.47383 5.17891L5.49023 5.01953" fill="#BA0000"/>
</svg>
