<svg width="25" height="25" viewBox="0 0 25 25" fill="none" xmlns="http://www.w3.org/2000/svg">
<path d="M8.2359 20.8259L8.33521 21.2231C8.40969 21.4962 8.26072 21.7445 7.98763 21.819L5.80286 22.3652L3.91602 14.6688L6.07596 14.1227C6.34905 14.0482 6.59732 14.1971 6.6718 14.4702L6.77111 14.8675M8.2359 20.8259L6.77111 14.8675M8.2359 20.8259L8.26072 20.8011L9.05519 20.0066H14.1695C15.0881 20.0066 15.9819 19.6342 16.6274 18.9887L21.1707 14.4702C21.5183 14.1227 21.6921 13.6509 21.6424 13.1792C21.5679 12.2606 20.7735 11.5903 19.8549 11.6648C19.4577 11.6896 19.0853 11.8634 18.8122 12.1365L16.3046 14.644M6.77111 14.8675L6.79594 14.8426C7.5904 14.073 8.63313 13.6261 9.75034 13.6261H14.7902C15.4605 13.6261 16.0564 14.0233 16.3046 14.644M16.3046 14.644L14.7902 16.2578H13.0002M5.62907 19.3115C6.00148 19.2122 6.37388 19.4356 6.47319 19.808C6.5725 20.1804 6.34905 20.5528 5.97665 20.6521C5.927 20.677 5.87734 20.677 5.80286 20.677" stroke="#333333" stroke-miterlimit="10" stroke-linecap="round" stroke-linejoin="round"/>
<path d="M13.7282 5.73853C14.1561 5.03872 14.7371 3.92848 14.9046 3.68274C14.9876 3.54997 15.0042 3.53337 14.9378 3.45038C14.8714 3.3508 14.722 3.38399 14.5561 3.43379C14.2407 3.53337 13.859 3.43379 13.4275 3.30101C12.5644 3.03545 11.3196 2.65372 10.8217 3.63295C10.7719 3.73253 10.8051 3.64955 10.9047 3.76573C11.0764 3.96957 11.5948 4.97098 12.0027 5.65364" stroke="#333333" stroke-miterlimit="10"/>
<path d="M17.5 13.5002C18 10.5002 16.3318 7.61646 13.809 5.92355C12.9791 5.37584 12.1493 5.6082 11.6348 5.92355C9.04562 7.45049 8 10.0397 8 11.5002C8 12.0341 8.1 12.8002 8.5 14.0002" stroke="#333333" stroke-miterlimit="10"/>
<path d="M12.1765 8C12.8043 8 13.3168 8.5125 13.3168 9.14031C13.3168 9.76811 12.8043 10.2806 12.1765 10.2806H11.7793L13.3296 12.0872" stroke="#333333" stroke-width="0.8" stroke-miterlimit="10" stroke-linecap="round" stroke-linejoin="round"/>
<path d="M11.625 8.02539H14.0337" stroke="#333333" stroke-width="0.8" stroke-miterlimit="10" stroke-linecap="round" stroke-linejoin="round"/>
<path d="M11.625 9.05078H14.0337" stroke="#333333" stroke-width="0.8" stroke-miterlimit="10" stroke-linecap="round" stroke-linejoin="round"/>
</svg>
