<svg width="25" height="25" viewBox="0 0 25 25" fill="none" xmlns="http://www.w3.org/2000/svg">
<path d="M12.7295 18.4238C12.9121 18.6065 13.129 18.7514 13.3676 18.8503C13.6063 18.9491 13.8621 19 14.1205 19C14.3789 19 14.6347 18.9491 14.8734 18.8503C15.112 18.7514 15.3289 18.6065 15.5115 18.4238L19.4236 14.5078C19.6064 14.3252 19.7513 14.1084 19.8502 13.8698C19.9491 13.6312 20 13.3755 20 13.1172C20 12.8589 19.9491 12.6032 19.8502 12.3646C19.7513 12.126 19.6064 11.9092 19.4236 11.7266L13.1657 5.47095C13.01 5.31531 12.8239 5.19329 12.6191 5.11243C12.4143 5.03158 12.195 4.99361 11.9749 5.00088L7.36376 5.15459C7.0466 5.16528 6.74535 5.29601 6.52096 5.52033C6.29657 5.74464 6.16579 6.04579 6.15509 6.36283L6.00132 10.9724C5.99222 11.1966 6.03015 11.4203 6.11267 11.629C6.19519 11.8377 6.32049 12.0268 6.4805 12.1842L12.7295 18.4238ZM-nan -nanL9.12312 8.12694C9.30577 7.94428 9.52262 7.79937 9.7613 7.70051C9.99998 7.60165 10.2558 7.55076 10.5142 7.55076C10.7725 7.55076 11.0283 7.60165 11.267 7.70051C11.5057 7.79937 11.7226 7.94428 11.9052 8.12694L-nan -nanL-nan -nanL11.9052 8.12694C12.1802 8.40194 12.3674 8.75226 12.4432 9.13362C12.519 9.51497 12.48 9.91024 12.3311 10.2694C12.1822 10.6286 11.9302 10.9356 11.6067 11.1516C11.2833 11.3676 10.9031 11.4829 10.5142 11.4829C10.1252 11.4829 9.74499 11.3676 9.42158 11.1516C9.09817 10.9356 8.84608 10.6286 8.69719 10.2694C8.54831 9.91024 8.50931 9.51497 8.58512 9.13362C8.66093 8.75226 8.84816 8.40194 9.12312 8.12694L-nan -nanL-nan -nanZ" stroke="#333333"/>
</svg>
