<svg width="25" height="25" viewBox="0 0 25 25" fill="none" xmlns="http://www.w3.org/2000/svg">
<path d="M12.2744 11.1252C12.4372 11.1015 12.578 10.9993 12.6509 10.8517L13.1978 9.74355L13.7447 10.8517C13.8175 10.9993 13.9583 11.1015 14.1211 11.1252L15.344 11.3029L14.4591 12.1655C14.3413 12.2803 14.2875 12.4458 14.3153 12.608L14.5242 13.8259L13.4304 13.2509C13.2848 13.1743 13.1107 13.1743 12.9651 13.2509L11.8713 13.8259L12.0802 12.608C12.108 12.4458 12.0543 12.2803 11.9364 12.1655L11.0515 11.3029L12.2744 11.1252Z" stroke="#333333" stroke-miterlimit="10" stroke-linecap="round" stroke-linejoin="round"/>
<path d="M20.0944 12.6666C20.2601 12.4841 20.3519 12.2464 20.3519 11.9999C20.3519 11.7534 20.26 11.5157 20.0943 11.3333L19.581 10.7653C19.5302 10.7087 19.4948 10.6401 19.4779 10.566C19.4611 10.4919 19.4634 10.4147 19.4847 10.3418L19.7008 9.60911C19.7714 9.37243 19.7511 9.11791 19.6439 8.89542C19.5366 8.67293 19.3502 8.4985 19.121 8.40632L18.4138 8.11937C18.3433 8.09047 18.2814 8.04408 18.2339 7.98458C18.1864 7.92509 18.1549 7.85446 18.1423 7.77937L18.0191 7.02482C17.9801 6.78123 17.8516 6.56095 17.6588 6.40705C17.466 6.25315 17.2227 6.17669 16.9765 6.19262L16.2128 6.23978C16.137 6.24424 16.0613 6.22926 15.9928 6.19625C15.9244 6.16325 15.8655 6.11331 15.8218 6.05118L15.3832 5.42492C15.2421 5.22229 15.0305 5.07959 14.7898 5.02476C14.5491 4.96993 14.2966 5.0069 14.0816 5.12844L13.4155 5.50268C13.349 5.53981 13.2741 5.55931 13.1979 5.55931C13.1218 5.55931 13.0469 5.53981 12.9804 5.50268L12.3145 5.12856C12.0996 5.00699 11.847 4.96999 11.6063 5.0248C11.3655 5.07961 11.1539 5.22228 11.0128 5.4249L10.5745 6.0509C10.531 6.11333 10.4721 6.16348 10.4036 6.19652C10.3351 6.22956 10.2592 6.24436 10.1833 6.2395L9.41972 6.19235C9.17343 6.17593 8.9299 6.2522 8.73699 6.40619C8.54408 6.56018 8.41573 6.78075 8.37716 7.02455L8.25384 7.77897C8.2413 7.85404 8.2098 7.92466 8.16231 7.98414C8.11482 8.04362 8.05292 8.08998 7.98249 8.11883L7.27495 8.40603C7.04586 8.49826 6.85945 8.67267 6.75221 8.89513C6.64497 9.11758 6.62463 9.37206 6.69517 9.60872L6.91131 10.3418C6.93253 10.4147 6.93481 10.4919 6.91793 10.5659C6.90106 10.64 6.86558 10.7085 6.81486 10.7651L6.30157 11.3333C6.13579 11.5157 6.04395 11.7534 6.04395 11.9999C6.04395 12.2465 6.13579 12.4841 6.30157 12.6666L6.81486 13.2345C6.86559 13.2911 6.90107 13.3597 6.91794 13.4338C6.93482 13.5078 6.93253 13.585 6.91131 13.658L6.69503 14.391C6.62457 14.6277 6.64495 14.8821 6.75218 15.1045C6.85941 15.3269 7.04578 15.5013 7.27482 15.5936L7.98221 15.8808C8.05264 15.9096 8.11454 15.956 8.16203 16.0155C8.20952 16.0749 8.24102 16.1456 8.25356 16.2206L8.37674 16.9751C8.41552 17.2187 8.54394 17.4392 8.7368 17.5931C8.92967 17.747 9.17308 17.8234 9.41931 17.8071L10.1829 17.7601C10.2588 17.7556 10.3345 17.7705 10.403 17.8036C10.4715 17.8366 10.5304 17.8865 10.5742 17.9487L11.0125 18.5747C11.1535 18.7775 11.3651 18.9203 11.6059 18.9752C11.8466 19.0301 12.0992 18.9931 12.3142 18.8716L12.9805 18.4973C13.0469 18.4601 13.1218 18.4405 13.198 18.4405C13.2741 18.4405 13.349 18.4601 13.4155 18.4973L14.0814 18.8716C14.2963 18.9931 14.549 19.03 14.7897 18.9751C15.0305 18.9202 15.2421 18.7774 15.3832 18.5747L15.8212 17.949C15.8652 17.887 15.9242 17.8371 15.9926 17.8041C16.0611 17.7712 16.1368 17.7561 16.2127 17.7604L16.976 17.8074C17.2224 17.8243 17.4662 17.7482 17.6592 17.5942C17.8523 17.4402 17.9806 17.2193 18.0188 16.9753L18.142 16.2209C18.1545 16.1458 18.186 16.0752 18.2335 16.0157C18.281 15.9563 18.3429 15.9099 18.4133 15.881L19.121 15.5938C19.3501 15.5016 19.5365 15.3272 19.6438 15.1047C19.751 14.8822 19.7713 14.6277 19.7007 14.391L19.4845 13.6582C19.4633 13.5853 19.461 13.5081 19.4779 13.434C19.4948 13.3599 19.5303 13.2913 19.5811 13.2348L20.0944 12.6666ZM17.6274 11.9999C17.6274 12.8759 17.3676 13.7323 16.8809 14.4607C16.3942 15.1891 15.7024 15.7568 14.893 16.0921C14.0837 16.4273 13.1931 16.515 12.3339 16.3441C11.4746 16.1732 10.6854 15.7514 10.0659 15.1319C9.44648 14.5125 9.02462 13.7232 8.85372 12.864C8.68281 12.0048 8.77052 11.1142 9.10577 10.3048C9.44102 9.49545 10.0087 8.80367 10.7372 8.31697C11.4656 7.83026 12.3219 7.57048 13.198 7.57048C14.3723 7.57183 15.4982 8.03893 16.3285 8.86931C17.1589 9.69969 17.626 10.8255 17.6274 11.9999V11.9999Z" stroke="#333333" stroke-miterlimit="10" stroke-linecap="round" stroke-linejoin="round"/>
</svg>
