<svg width="25" height="25" viewBox="0 0 25 25" fill="none" xmlns="http://www.w3.org/2000/svg">
<path d="M17.5608 11.1001C17.5239 11.1001 17.487 11.1001 17.4502 11.1001C14.9794 11.1001 12.9512 13.1283 12.9512 15.5991C12.9512 17.7011 14.4262 19.508 16.3807 19.9874C16.7126 20.0612 17.0814 20.1349 17.4502 20.1349C19.9209 20.1349 21.9491 18.1067 21.9491 15.636C21.9491 13.1283 19.9947 11.137 17.5608 11.1001Z" stroke="#333333" stroke-miterlimit="10" stroke-linecap="round" stroke-linejoin="round"/>
<path d="M18.7861 11.2966L11.667 5.12135C11.5052 4.95955 11.2356 4.95955 11.0738 5.12135L8.59286 7.33258V6.84719C8.59286 6.57753 8.37713 6.3618 8.10747 6.3618H7.48724C7.21758 6.3618 7.00185 6.57753 7.00185 6.84719V8.6809L3.9277 11.2966C3.65803 11.5663 3.8468 11.9977 4.22432 11.9977H6.2468V19.4135L15.2805 19.4404" stroke="#333333" stroke-miterlimit="10" stroke-linecap="round" stroke-linejoin="round"/>
<path d="M16.5505 14C17.1783 14 17.6908 14.5125 17.6908 15.1403C17.6908 15.7681 17.1783 16.2806 16.5505 16.2806H16.1533L17.7036 18.0872" stroke="#333333" stroke-width="0.8" stroke-miterlimit="10" stroke-linecap="round" stroke-linejoin="round"/>
<path d="M16 14.0254H18.4087" stroke="#333333" stroke-width="0.8" stroke-miterlimit="10" stroke-linecap="round" stroke-linejoin="round"/>
<path d="M16 15.0508H18.4087" stroke="#333333" stroke-width="0.8" stroke-miterlimit="10" stroke-linecap="round" stroke-linejoin="round"/>
</svg>
