<svg width="25" height="25" viewBox="0 0 25 25" fill="none" xmlns="http://www.w3.org/2000/svg">
<path d="M8.59863 14C8.59863 13.7239 8.37478 13.5 8.09863 13.5C7.82249 13.5 7.59863 13.7239 7.59863 14H8.59863ZM11.7436 20.3843C12.0197 20.3843 12.2436 20.1604 12.2436 19.8843C12.2436 19.6082 12.0197 19.3843 11.7436 19.3843V20.3843ZM7.59863 14V17.8843H8.59863V14H7.59863ZM10.0986 20.3843H11.7436V19.3843H10.0986V20.3843ZM7.59863 17.8843C7.59863 19.265 8.71792 20.3843 10.0986 20.3843V19.3843C9.27021 19.3843 8.59863 18.7127 8.59863 17.8843H7.59863Z" fill="#333333"/>
<path d="M12.2422 9.30875L15.1593 6.9668" stroke="#333333"/>
<path d="M16.3714 13.7284C16.7186 14.1579 16.6547 14.795 16.1786 15.075C14.9388 15.8043 13.4897 16.1232 12.042 15.9697C10.2606 15.7808 8.62727 14.892 7.50125 13.4987C6.37523 12.1055 5.84877 10.3221 6.03769 8.54074C6.19123 7.09303 6.80703 5.74309 7.78015 4.68376C8.15378 4.27704 8.79007 4.3482 9.13723 4.77774L12.7543 9.25307L16.3714 13.7284Z" stroke="#333333"/>
<circle cx="15.793" cy="6.44872" r="0.863758" stroke="#333333"/>
</svg>
