<svg width="25" height="25" viewBox="0 0 25 25" fill="none" xmlns="http://www.w3.org/2000/svg">
<path d="M20.439 16.0862H22.2108C22.7826 15.8502 23.82 14.8829 23.3959 12.9011C23.3335 12.4095 22.6973 11.3144 20.6516 10.8661L16.6343 10.1878C16.0106 9.48001 14.5075 7.33261 13.4846 7.0023H6.46797C5.47004 6.94332 3.31203 8.01722 2.66337 10.1878C2.21639 11.8787 1.5906 15.4256 2.66337 16.0862H4.34329M8.56318 16.0862H16.1042" stroke="#333333" stroke-miterlimit="10" stroke-linecap="round" stroke-linejoin="round"/>
<path d="M15.3802 10.5682H9.53727M3.69434 10.5682H9.53727M9.53727 10.5682V8.62061" stroke="#333333" stroke-miterlimit="10" stroke-linecap="round" stroke-linejoin="round"/>
<circle r="2.14496" transform="matrix(-1 0 0 1 18.399 15.9599)" stroke="#333333" stroke-miterlimit="10" stroke-linecap="round" stroke-linejoin="round"/>
<circle r="2.14496" transform="matrix(-1 0 0 1 6.55719 15.9599)" stroke="#333333" stroke-miterlimit="10" stroke-linecap="round" stroke-linejoin="round"/>
</svg>
