<svg width="25" height="25" viewBox="0 0 25 25" fill="none" xmlns="http://www.w3.org/2000/svg">
<path d="M14 6.99866C14 9.20851 13.105 11 12.0013 11C10.8976 11 10 9.20851 10 6.99866C10 4.7888 12.0013 3 12.0013 3C12.0013 3 14 4.79149 14 6.99866Z" stroke="black" stroke-linecap="round" stroke-linejoin="round"/>
<path d="M16.6234 13.568C15.0695 14.8627 13.1525 15.3744 12.3516 14.707C11.5506 14.0396 12.1647 12.4513 13.7212 11.1477C15.2777 9.84407 17.993 10.0065 17.993 10.0065C17.993 10.0065 18.1799 12.2711 16.6234 13.568Z" stroke="black" stroke-linecap="round" stroke-linejoin="round"/>
<path d="M16.6234 18.5665C15.0695 19.8637 13.1525 20.3733 12.3516 19.708C11.5506 19.0427 12.1647 17.4518 13.7212 16.1479C15.2777 14.844 17.993 15.0065 17.993 15.0065C17.993 15.0065 18.1799 17.2716 16.6234 18.5665Z" stroke="black" stroke-linecap="round" stroke-linejoin="round"/>
<path d="M7.37575 13.568C8.92991 14.8627 10.8472 15.3744 11.6484 14.707C12.4495 14.0396 11.8353 12.4513 10.2784 11.1477C8.72162 9.84407 6.00585 10.0065 6.00585 10.0065C6.00585 10.0065 5.83228 12.2711 7.37575 13.568Z" stroke="black" stroke-linecap="round" stroke-linejoin="round"/>
<path d="M7.37575 18.5665C8.92991 19.8637 10.8472 20.3733 11.6484 19.708C12.4495 19.0427 11.8353 17.4518 10.2784 16.1479C8.72162 14.844 6.00585 15.0065 6.00585 15.0065C6.00585 15.0065 5.83228 17.2716 7.37575 18.5665Z" stroke="black" stroke-linecap="round" stroke-linejoin="round"/>
<path d="M12 11V21" stroke="black" stroke-linecap="round" stroke-linejoin="round"/>
</svg>
