<svg width="25" height="25" viewBox="0 0 25 25" fill="none" xmlns="http://www.w3.org/2000/svg">
<path d="M20.68 5H4C2.89543 5 2 5.89543 2 7V16.25C2 17.3546 2.89543 18.25 4 18.25H20.68C21.7846 18.25 22.68 17.3546 22.68 16.25V7C22.68 5.89543 21.7846 5 20.68 5Z" stroke="#333333"/>
<path d="M14.2175 13.5358C15.2759 12.9416 16 11.7905 16 10.4907C16 8.55968 14.4218 7 12.4907 7C10.5597 7 9 8.55968 9 10.4907C9 11.7905 9.70557 12.9416 10.7639 13.5358M14.2175 13.5358V16.3952C14.2175 16.5066 14.1061 16.5809 13.9947 16.5252L12.4907 15.7639L11.0053 16.5252C10.8939 16.5995 10.7639 16.5252 10.7639 16.3952V13.5358M14.2175 13.5358C12.871 14.0933 11.3541 13.7681 10.7639 13.5358" stroke="#333333"/>
<circle cx="12.5" cy="10.5" r="1.5" stroke="#333333"/>
</svg>
