<svg width="25" height="25" viewBox="0 0 25 25" fill="none" xmlns="http://www.w3.org/2000/svg">
<path d="M14 10.2998H17.2107V6.9998L21.4668 11.3998L17.2107 15.7998V12.4998H14" stroke="#333333" stroke-miterlimit="10" stroke-linecap="round" stroke-linejoin="round"/>
<path d="M8.5 17C11.5376 17 14 14.5376 14 11.5C14 8.46243 11.5376 6 8.5 6C5.46243 6 3 8.46243 3 11.5C3 14.5376 5.46243 17 8.5 17Z" stroke="#333333" stroke-miterlimit="10" stroke-linecap="round" stroke-linejoin="round"/>
<path d="M3 12H14" stroke="#333333" stroke-miterlimit="10" stroke-linecap="round" stroke-linejoin="round"/>
<path d="M8.5 6C10.0633 7.50609 10.9517 9.46062 11 11.5C10.9517 13.5394 10.0633 15.4939 8.5 17C6.9367 15.4939 6.04828 13.5394 6 11.5C6.04828 9.46062 6.9367 7.50609 8.5 6Z" stroke="#333333" stroke-miterlimit="10" stroke-linecap="round" stroke-linejoin="round"/>
</svg>
