<svg width="25" height="25" viewBox="0 0 25 25" fill="none" xmlns="http://www.w3.org/2000/svg">
<path d="M20.68 5H4C2.89543 5 2 5.89543 2 7V16.25C2 17.3546 2.89543 18.25 4 18.25H20.68C21.7846 18.25 22.68 17.3546 22.68 16.25V7C22.68 5.89543 21.7846 5 20.68 5Z" stroke="#333333"/>
<path d="M4.5 9H9" stroke="#333333" stroke-linecap="round" stroke-linejoin="round"/>
<path d="M4.5 15H7.5" stroke="#333333" stroke-linecap="round" stroke-linejoin="round"/>
<path d="M10.5 15H13.5" stroke="#333333" stroke-linecap="round" stroke-linejoin="round"/>
<path d="M16.5 15H19.5" stroke="#333333" stroke-linecap="round" stroke-linejoin="round"/>
<path d="M4.5 12H19.5" stroke="#333333" stroke-linecap="round" stroke-linejoin="round"/>
<mask id="mask0" mask-type="alpha" maskUnits="userSpaceOnUse" x="15" y="6" width="6" height="4">
<path d="M18.6952 6.5C18.403 6.5 18.1351 6.5828 17.9013 6.71918C17.6578 6.57793 17.385 6.5 17.0976 6.5C16.216 6.5 15.5 7.21599 15.5 8.09759C15.5 8.9792 16.216 9.69519 17.0976 9.69519C17.385 9.69519 17.6578 9.61726 17.9013 9.47601C18.1351 9.61239 18.403 9.69519 18.6952 9.69519C19.5768 9.69519 20.2928 8.9792 20.2928 8.09759C20.2928 7.21599 19.5768 6.5 18.6952 6.5ZM17.3022 8.86717C17.234 8.88665 17.1658 8.89639 17.0976 8.89639C16.6593 8.89639 16.2988 8.53596 16.2988 8.09759C16.2988 7.65923 16.6593 7.2988 17.0976 7.2988C17.1658 7.2988 17.2389 7.31341 17.3022 7.32802C17.1756 7.55694 17.0976 7.81509 17.0976 8.09759C17.0976 8.3801 17.1756 8.63824 17.3022 8.86717ZM18.6952 8.89639C18.2569 8.89639 17.8964 8.53596 17.8964 8.09759C17.8964 7.65923 18.2569 7.2988 18.6952 7.2988C19.1336 7.2988 19.494 7.65923 19.494 8.09759C19.494 8.53596 19.1336 8.89639 18.6952 8.89639Z" fill="#333333"/>
</mask>
<g mask="url(#mask0)">
<path d="M17.9013 6.71918L17.3995 7.58418C17.7106 7.76461 18.0946 7.76415 18.4052 7.58296L17.9013 6.71918ZM17.9013 9.47601L18.4052 8.61223C18.0946 8.43104 17.7106 8.43058 17.3995 8.61101L17.9013 9.47601ZM17.3022 8.86717L17.5768 9.82872C17.8699 9.74501 18.1088 9.53224 18.2257 9.25079C18.3426 8.96934 18.3248 8.64994 18.1773 8.38323L17.3022 8.86717ZM17.3022 7.32802L18.1773 7.81197C18.3292 7.53737 18.3433 7.20741 18.2155 6.92081C18.0878 6.63421 17.8329 6.42421 17.5271 6.35364L17.3022 7.32802ZM18.6952 5.5C18.2084 5.5 17.7682 5.63911 17.3974 5.8554L18.4052 7.58296C18.502 7.52649 18.5976 7.5 18.6952 7.5V5.5ZM18.4031 5.85418C18.015 5.62904 17.5701 5.5 17.0976 5.5V7.5C17.1999 7.5 17.3006 7.52682 17.3995 7.58418L18.4031 5.85418ZM17.0976 5.5C15.6637 5.5 14.5 6.6637 14.5 8.09759H16.5C16.5 7.76828 16.7683 7.5 17.0976 7.5V5.5ZM14.5 8.09759C14.5 9.53149 15.6637 10.6952 17.0976 10.6952V8.69519C16.7683 8.69519 16.5 8.42691 16.5 8.09759H14.5ZM17.0976 10.6952C17.5701 10.6952 18.015 10.5662 18.4031 10.341L17.3995 8.61101C17.3007 8.66837 17.1999 8.69519 17.0976 8.69519V10.6952ZM17.3974 10.3398C17.7682 10.5561 18.2084 10.6952 18.6952 10.6952V8.69519C18.5976 8.69519 18.502 8.6687 18.4052 8.61223L17.3974 10.3398ZM18.6952 10.6952C20.1291 10.6952 21.2928 9.53149 21.2928 8.09759H19.2928C19.2928 8.42691 19.0245 8.69519 18.6952 8.69519V10.6952ZM21.2928 8.09759C21.2928 6.6637 20.1291 5.5 18.6952 5.5V7.5C19.0245 7.5 19.2928 7.76828 19.2928 8.09759H21.2928ZM17.0276 7.90563C17.0451 7.90062 17.0693 7.89639 17.0976 7.89639V9.89639C17.2623 9.89639 17.4229 9.87268 17.5768 9.82872L17.0276 7.90563ZM17.0976 7.89639C17.2115 7.89639 17.2988 7.98362 17.2988 8.09759H15.2988C15.2988 9.0883 16.1071 9.89639 17.0976 9.89639V7.89639ZM17.2988 8.09759C17.2988 8.21158 17.2115 8.2988 17.0976 8.2988V6.2988C16.1071 6.2988 15.2988 7.10688 15.2988 8.09759H17.2988ZM17.0976 8.2988C17.0794 8.2988 17.0659 8.29785 17.0582 8.29714C17.0503 8.29642 17.046 8.29572 17.0458 8.2957C17.0456 8.29567 17.048 8.29605 17.0536 8.29719C17.0593 8.29834 17.0668 8.29997 17.0773 8.3024L17.5271 6.35364C17.4571 6.33748 17.2884 6.2988 17.0976 6.2988V8.2988ZM16.4271 6.84407C16.2294 7.20156 16.0976 7.62476 16.0976 8.09759H18.0976C18.0976 8.00542 18.1218 7.91232 18.1773 7.81197L16.4271 6.84407ZM16.0976 8.09759C16.0976 8.57043 16.2294 8.99362 16.4271 9.35111L18.1773 8.38323C18.1218 8.28286 18.0976 8.18977 18.0976 8.09759H16.0976ZM18.6952 7.89639C18.8091 7.89639 18.8964 7.98362 18.8964 8.09759H16.8964C16.8964 9.0883 17.7047 9.89639 18.6952 9.89639V7.89639ZM18.8964 8.09759C18.8964 8.21158 18.8091 8.2988 18.6952 8.2988V6.2988C17.7047 6.2988 16.8964 7.10688 16.8964 8.09759H18.8964ZM18.6952 8.2988C18.5813 8.2988 18.494 8.2115 18.494 8.09759H20.494C20.494 7.10696 19.6859 6.2988 18.6952 6.2988V8.2988ZM18.494 8.09759C18.494 7.9837 18.5813 7.89639 18.6952 7.89639V9.89639C19.6859 9.89639 20.494 9.08822 20.494 8.09759H18.494Z" fill="#333333"/>
</g>
</svg>
