<svg width="25" height="25" viewBox="0 0 25 25" fill="none" xmlns="http://www.w3.org/2000/svg">
<path d="M8.66278 14.5595H14.2009C14.2065 14.5587 14.212 14.5595 14.2168 14.5595C14.4351 14.5595 14.6124 14.3815 14.6124 14.1639C14.6124 14.0983 14.5965 14.0357 14.5681 13.982L13.7975 10.1305C13.7603 9.94542 13.5981 9.8125 13.4098 9.8125H9.45395C9.26565 9.8125 9.10346 9.94542 9.06628 10.1305L8.27511 14.0864C8.25216 14.2019 8.28223 14.3229 8.35739 14.4139C8.43255 14.5073 8.54411 14.5595 8.66278 14.5595Z" stroke="#333333" stroke-miterlimit="10" stroke-linecap="round" stroke-linejoin="round"/>
<path d="M17.7534 16.318C17.7162 16.1329 17.554 16 17.3657 16H13.4099C13.2216 16 13.0594 16.1329 13.0222 16.318L12.2311 20.2739C12.2081 20.3894 12.239 20.5104 12.3134 20.6014C12.3885 20.6948 12.5001 20.747 12.6187 20.747H18.1569C18.1625 20.747 18.168 20.7462 18.1727 20.747C18.3911 20.747 18.5683 20.569 18.5683 20.3514C18.5683 20.2858 18.5525 20.2232 18.524 20.1695L17.7534 16.318Z" stroke="#333333" stroke-miterlimit="10" stroke-linecap="round" stroke-linejoin="round"/>
<path d="M9.8414 16.318C9.80421 16.1329 9.64202 16 9.45373 16H5.49789C5.30959 16 5.14741 16.1329 5.11022 16.318L4.31905 20.2739C4.29611 20.3894 4.32617 20.5104 4.40133 20.6014C4.4765 20.6948 4.58805 20.747 4.70673 20.747H10.2449C10.2512 20.747 10.256 20.7462 10.2607 20.747C10.4791 20.747 10.6563 20.569 10.6563 20.3514C10.6563 20.2858 10.6405 20.2232 10.612 20.1695L9.8414 16.318Z" stroke="#333333" stroke-miterlimit="10" stroke-linecap="round" stroke-linejoin="round"/>
<path d="M19.7052 9.75087L18.0283 9.33144L17.6081 7.65586C17.5632 7.46758 17.2442 7.46758 17.1992 7.65586L16.7791 9.33144L15.1035 9.75016C15.0087 9.77335 14.9434 9.85765 14.9434 9.95461C14.9434 10.0516 15.0087 10.1359 15.1035 10.159L16.7791 10.5778L17.1992 12.2541C17.2245 12.3496 17.3081 12.4149 17.4058 12.4149C17.5035 12.4149 17.5871 12.3496 17.6102 12.2555L18.029 10.5792L19.7059 10.1598C19.8022 10.1366 19.8668 10.0523 19.8668 9.95531C19.8668 9.85836 19.8001 9.77475 19.7052 9.75087Z" fill="#333333"/>
<path d="M5.45893 12.4147C5.55588 12.4147 5.64018 12.3494 5.66337 12.2552L6.08279 10.579L7.75837 10.1602C7.85322 10.1371 7.91855 10.0527 7.91855 9.9558C7.91855 9.85884 7.85322 9.77454 7.75837 9.75135L6.08279 9.33263L5.66337 7.65635C5.617 7.46807 5.30085 7.46807 5.25448 7.65635L4.83506 9.33193L3.15948 9.75065C3.06534 9.77454 3 9.85884 3 9.9558C3 10.0527 3.06534 10.1371 3.16018 10.1602L4.83576 10.579L5.25519 12.2552C5.27767 12.3494 5.36197 12.4147 5.45893 12.4147Z" fill="#333333"/>
<path d="M9.13311 6.6444L10.8101 7.06312L11.2288 8.7394C11.2513 8.83355 11.3356 8.89888 11.4326 8.89888C11.5295 8.89888 11.6138 8.83355 11.637 8.7394L12.0557 7.06312L13.7327 6.6444C13.8254 6.62051 13.8915 6.53621 13.8915 6.43996C13.8915 6.34371 13.8254 6.2587 13.732 6.23551L12.055 5.81679L11.6363 4.14121C11.5899 3.95293 11.2738 3.95293 11.2274 4.14121L10.8087 5.81679L9.13171 6.23551C9.03967 6.2587 8.97363 6.343 8.97363 6.43996C8.97363 6.53691 9.03967 6.62051 9.13311 6.6444Z" fill="#333333"/>
</svg>
