<svg width="25" height="25" viewBox="0 0 25 25" fill="none" xmlns="http://www.w3.org/2000/svg">
<rect x="7.5" y="7.22314" width="9.55155" height="12.0343" rx="2.5" stroke="#333333"/>
<path d="M9.98245 15.0935C9.99996 14.7315 10.1137 14.3839 10.3078 14.0847C10.3133 14.1093 10.3198 14.1337 10.3273 14.1579L10.3513 14.236L10.399 14.3023C10.5079 14.4538 10.6635 14.5086 10.7367 14.5295C10.831 14.5566 10.932 14.5668 11.0329 14.5668C11.0331 14.5668 11.0335 14.5668 11.0343 14.5669C11.0557 14.5681 11.3194 14.5837 11.5174 14.3835C11.7038 14.1951 11.719 13.9393 11.719 13.7874V13.7375L11.7091 13.6885C11.6588 13.4392 11.5554 13.2038 11.4059 12.9981C11.226 12.7406 11.1197 12.439 11.0984 12.1257C11.1015 11.7878 11.2094 11.3404 11.4286 10.9718C11.5292 10.8027 11.6451 10.6624 11.7751 10.5559C11.7489 10.625 11.73 10.6973 11.7189 10.7717L11.7135 10.8082V10.8451C11.7135 11.26 11.9298 11.5899 12.153 11.8378C12.372 12.0811 12.6608 12.3131 12.9269 12.5269L12.9413 12.5384C13.7689 13.2039 14.5685 13.8741 14.5685 15.0827C14.5685 15.63 14.3675 16.0279 14.0191 16.3017C13.6553 16.5875 13.0794 16.7768 12.2756 16.7768C11.4717 16.7768 10.8958 16.5875 10.532 16.3017C10.1858 16.0297 9.98508 15.6352 9.98245 15.0935Z" stroke="#333333"/>
<path d="M8.86182 19.1377V19.9997C8.86182 20.552 9.30953 20.9997 9.86182 20.9997H14.6893C15.2416 20.9997 15.6893 20.552 15.6893 19.9997V19.1377" stroke="#333333" stroke-linecap="round" stroke-linejoin="round"/>
<path d="M9.48242 7.34473V3.99997C9.48242 3.44768 9.93014 2.99997 10.4824 2.99997H14.0685C14.6208 2.99997 15.0685 3.44768 15.0685 3.99997V7.34473" stroke="#333333" stroke-linecap="round" stroke-linejoin="round"/>
<rect x="11.0345" y="4.55155" width="2.48272" height="0.62068" stroke="#333333" stroke-width="0.62068"/>
</svg>
