<svg width="25" height="25" viewBox="0 0 25 25" fill="none" xmlns="http://www.w3.org/2000/svg">
<path d="M17.5 13C19 12.5 20.3017 13.0874 20.8873 13.2826C22.5466 13.8438 23.5471 11.7453 22.0586 10.818C20.5457 9.81752 15.3237 6.79169 12.6395 7.01131C11.3218 7.10892 9 7.49995 6.5 8.99995M12.8103 12.5505C12.8835 12.5505 12.9567 12.5261 13.0299 12.5261C14.25 12.3797 15.3969 12.2577 16.1289 12.3797C17.471 12.5993 17.8859 13.4046 17.8127 14.0878C17.7639 14.6491 17.349 15.2103 16.6902 15.1615C15.7385 15.1127 14.6404 15.2347 13.5667 15.3323C12.3223 15.4543 11.0534 15.5764 10.1505 15.4543C9.66246 15.3811 8.78399 15.0639 7.88112 14.6979C7.6615 14.6247 6.71962 14.5976 6.5 14.5" stroke="#333333" stroke-miterlimit="10" stroke-linecap="round" stroke-linejoin="round"/>
<path d="M5.70908 15.479H2.61005C2.26842 15.479 2 15.2106 2 14.869V8.06084C2 7.71922 2.26842 7.4508 2.61005 7.4508H5.68468C6.0263 7.4508 6.29472 7.71922 6.29472 8.06084V14.8446C6.31913 15.1862 6.05071 15.479 5.70908 15.479Z" stroke="#333333" stroke-miterlimit="10" stroke-linecap="round" stroke-linejoin="round"/>
<path d="M20.4682 13.1553C20.6674 13.681 20.7721 14.2417 20.7721 14.8089C20.7721 17.3892 18.6777 19.4863 16.1026 19.4863C13.8002 19.4863 11.8824 17.8165 11.4961 15.6237" stroke="#333333" stroke-miterlimit="10" stroke-linecap="round" stroke-linejoin="round"/>
</svg>
