<svg width="25" height="25" viewBox="0 0 25 25" fill="none" xmlns="http://www.w3.org/2000/svg">
<path d="M17.1913 7.80734C16.0975 5.5532 13.7938 4 11.1288 4C7.40633 4 4.38867 7.03041 4.38867 10.7686C4.38867 13.095 5.55743 15.1473 7.33748 16.3657" stroke="#333333" stroke-miterlimit="10" stroke-linecap="round" stroke-linejoin="round"/>
<path d="M13.5 20C17.0899 20 20 17.0899 20 13.5C20 9.91015 17.0899 7 13.5 7C9.91015 7 7 9.91015 7 13.5C7 17.0899 9.91015 20 13.5 20Z" stroke="#333333" stroke-miterlimit="10" stroke-linecap="round" stroke-linejoin="round"/>
<path d="M7 14H20" stroke="#333333" stroke-miterlimit="10" stroke-linecap="round" stroke-linejoin="round"/>
<path d="M14 7C15.876 8.77993 16.9421 11.0898 17 13.5C16.9421 15.9102 15.876 18.2201 14 20C12.124 18.2201 11.0579 15.9102 11 13.5C11.0579 11.0898 12.124 8.77993 14 7Z" stroke="#333333" stroke-miterlimit="10" stroke-linecap="round" stroke-linejoin="round"/>
</svg>
