<svg width="25" height="25" viewBox="0 0 25 25" fill="none" xmlns="http://www.w3.org/2000/svg">
<path d="M10.1676 18.856L10.1675 20.542C10.1675 21.0408 10.5526 21.4396 11.0178 21.4396H13.834C14.0675 21.4396 14.28 21.3405 14.4388 21.1787C14.5933 21.0123 14.6887 20.7887 14.6887 20.5419L14.6888 18.856" stroke="#333333" stroke-miterlimit="10" stroke-linecap="round" stroke-linejoin="round"/>
<path d="M12.3201 16.9182V13.3236V16.9182ZM12.3201 13.3236L10.813 11.751H14.0425L12.3201 13.3236Z" stroke="#333333" stroke-miterlimit="10" stroke-linecap="round" stroke-linejoin="round"/>
<path d="M15.7303 16.1018L15.7302 16.1018L15.7239 16.1066C15.5506 16.2395 15.3088 16.4776 15.1195 16.7784C14.9812 16.9983 14.8612 17.2676 14.8288 17.5639H9.94334C9.9189 17.1693 9.71874 16.6338 9.14982 16.1218L9.13802 16.1112L9.12514 16.1018C7.79584 15.1357 6.9375 13.6018 6.9375 11.8746C6.9375 8.95242 9.39555 6.5835 12.4277 6.5835C15.4599 6.5835 17.9179 8.95242 17.9179 11.8746C17.9179 13.6018 17.0596 15.1357 15.7303 16.1018Z" stroke="#333333" stroke-miterlimit="10" stroke-linecap="round" stroke-linejoin="round"/>
<path d="M4 11.7509H5.01089M12.362 4.22861V3M19.8408 11.7509H20.8558M17.6382 7.01993L18.5 6.33244M7 7.01993L5.71138 6.04088" stroke="#333333" stroke-miterlimit="10" stroke-linecap="round" stroke-linejoin="round"/>
</svg>
