<svg width="25" height="25" viewBox="0 0 25 25" fill="none" xmlns="http://www.w3.org/2000/svg">
<path d="M10.2073 8.82176H14.8081M14.6053 10.0484H10.2073C9.54585 11.4605 5.96866 13.2129 6.00021 17.3514C6.0268 20.791 8.59445 21.358 12.3961 21.358C12.3995 21.358 12.4029 21.358 12.4063 21.358C12.41 21.358 12.4131 21.358 12.4167 21.358C16.2182 21.358 18.7858 20.791 18.8124 17.3514C18.8439 13.2129 15.267 11.4605 14.6053 10.0484ZM10.2941 7.60216H14.573C15.2107 5.45037 16.2281 5.6261 15.4107 4.85122C14.5936 4.07607 11.828 3.55227 10.0149 4.54303C8.20206 5.53354 9.6564 5.45037 10.2941 7.60216Z" stroke="#333333" stroke-miterlimit="10" stroke-linecap="round" stroke-linejoin="round"/>
<path d="M11.5505 14C12.1783 14 12.6908 14.5125 12.6908 15.1403C12.6908 15.7681 12.1783 16.2806 11.5505 16.2806H11.1533L12.7036 18.0872" stroke="#333333" stroke-width="0.8" stroke-miterlimit="10" stroke-linecap="round" stroke-linejoin="round"/>
<path d="M11 14.0254H13.4087" stroke="#333333" stroke-width="0.8" stroke-miterlimit="10" stroke-linecap="round" stroke-linejoin="round"/>
<path d="M11 15.0508H13.4087" stroke="#333333" stroke-width="0.8" stroke-miterlimit="10" stroke-linecap="round" stroke-linejoin="round"/>
</svg>
