<svg width="25" height="25" viewBox="0 0 25 25" fill="none" xmlns="http://www.w3.org/2000/svg">
<path fill-rule="evenodd" clip-rule="evenodd" d="M10.9298 5H13.1404C15.3018 5 17.1193 6.81754 17.1193 8.97895V15.0211C17.1193 17.2316 15.3018 19 13.1404 19H10.9298C8.76842 19 7 17.2316 7 15.0211V8.97895C7 6.81754 8.76842 5 10.9298 5ZM11.8632 7.06316H12.207C12.5509 7.06316 12.8456 7.30877 12.8456 7.65263V9.61754C12.8456 9.9614 12.5509 10.207 12.207 10.207H11.8632C11.5193 10.207 11.2737 9.9614 11.2737 9.61754V7.65263C11.2737 7.30877 11.5193 7.06316 11.8632 7.06316Z" stroke="#333333" stroke-miterlimit="10" stroke-linecap="round" stroke-linejoin="round"/>
</svg>
