<svg width="25" height="25" viewBox="0 0 25 25" fill="none" xmlns="http://www.w3.org/2000/svg">
<path d="M7.72662 19.672L7.81229 20.0147C7.87654 20.2503 7.74803 20.4645 7.51245 20.5287L5.62772 20.9999L4 14.3605L5.86331 13.8894C6.0989 13.8251 6.31307 13.9536 6.37732 14.1892L6.46299 14.5319M7.72662 19.672L6.46299 14.5319M7.72662 19.672L7.74803 19.6506L8.43339 18.9652H12.8453C13.6378 18.9652 14.4088 18.644 14.9657 18.0871L18.8851 14.1892C19.1849 13.8894 19.3348 13.4824 19.292 13.0755C19.2277 12.283 18.5424 11.7048 17.75 11.769C17.4073 11.7904 17.086 11.9404 16.8505 12.176L14.6872 14.3391M6.46299 14.5319L6.48441 14.5104C7.16977 13.8465 8.0693 13.461 9.03308 13.461H13.3808C13.959 13.461 14.4731 13.8036 14.6872 14.3391M14.6872 14.3391L13.3808 15.7313H11.8366" stroke="#333333" stroke-miterlimit="10" stroke-linecap="round" stroke-linejoin="round"/>
<path d="M18.4729 5.47574C18.3473 5.18499 18.1607 4.92128 17.9245 4.70048C17.6904 4.47781 17.4118 4.30126 17.1051 4.18102C16.7983 4.06079 16.4693 3.99926 16.1372 4.00001C15.8055 3.99932 15.477 4.06088 15.1707 4.18112C14.8643 4.30136 14.5862 4.47789 14.3526 4.70048L13.9202 5.10681L13.4905 4.70048C13.2569 4.47789 12.9788 4.30136 12.6724 4.18112C12.3661 4.06088 12.0376 3.99932 11.7059 4.00001C11.2057 3.99963 10.7167 4.13954 10.3007 4.40204C9.88465 4.66454 9.56031 5.03783 9.36869 5.47468C9.17707 5.91154 9.12679 6.39232 9.2242 6.85621C9.64397 8.85522 12.1917 10.5897 13.7331 11.6903C13.7576 11.7136 13.7867 11.7322 13.8189 11.7448C13.851 11.7575 13.8854 11.764 13.9202 11.764C13.955 11.764 13.9895 11.7575 14.0216 11.7448C14.0537 11.7322 14.0829 11.7136 14.1074 11.6903C15.6254 10.568 18.1962 8.85341 18.6165 6.85686C18.7141 6.39318 18.6641 5.91256 18.4729 5.47574Z" stroke="#333333" stroke-miterlimit="10" stroke-linecap="round" stroke-linejoin="round"/>
</svg>
