<svg width="25" height="25" viewBox="0 0 25 25" fill="none" xmlns="http://www.w3.org/2000/svg">
<circle cx="14.1019" cy="13.4745" r="5.89781" stroke="#333333" stroke-miterlimit="10" stroke-linecap="round" stroke-linejoin="round"/>
<path d="M18.3713 13.3333C18.3713 12.988 18.3275 12.653 18.2453 12.3333C18.1327 11.896 17.948 11.4875 17.7046 11.1215M14 18C14.6893 18 15.3379 17.8256 15.9041 17.5186M14 9C13.1821 9 12.4216 9.24544 11.7881 9.66667M10.3691 15.3333C10.0288 14.745 9.83398 14.0619 9.83398 13.3333C9.83398 12.7385 9.96381 12.174 10.1967 11.6667" stroke="#333333" stroke-width="0.6" stroke-miterlimit="10" stroke-linecap="round" stroke-linejoin="round"/>
<path d="M16.774 7.94545C15.8169 5.9813 13.801 4.62793 11.4691 4.62793C8.21183 4.62793 5.57129 7.26847 5.57129 10.5257C5.57129 12.5529 6.59399 14.3411 8.15158 15.4027" stroke="#333333" stroke-miterlimit="10" stroke-linecap="round" stroke-linejoin="round"/>
</svg>
