<svg width="25" height="25" viewBox="0 0 25 25" fill="none" xmlns="http://www.w3.org/2000/svg">
<mask id="path-1-inside-1" fill="white">
<path d="M12.7373 17.6001H12.009C11.5628 17.6001 11.1997 17.9632 11.1997 18.4094V18.5511C11.1997 18.9972 11.5628 19.3601 12.0087 19.3601H12.7371C13.1832 19.3601 13.5464 18.9972 13.5464 18.5511V18.4094C13.5464 17.9632 13.1832 17.6001 12.7373 17.6001ZM12.9597 18.5511C12.9597 18.6737 12.86 18.7734 12.7374 18.7734H12.009C11.8861 18.7734 11.7864 18.6737 11.7864 18.5511V18.4094C11.7864 18.2865 11.8861 18.1867 12.009 18.1867H12.7371C12.86 18.1867 12.9597 18.2865 12.9597 18.4094V18.5511Z"/>
</mask>
<path d="M12.7373 16.6001H12.009V18.6001H12.7373V16.6001ZM12.009 16.6001C11.0106 16.6001 10.1997 17.4109 10.1997 18.4094H12.1997C12.1997 18.5155 12.1151 18.6001 12.009 18.6001V16.6001ZM10.1997 18.4094V18.5511H12.1997V18.4094H10.1997ZM10.1997 18.5511C10.1997 19.5497 11.0108 20.3601 12.0087 20.3601V18.3601C12.1149 18.3601 12.1997 18.4447 12.1997 18.5511H10.1997ZM12.0087 20.3601H12.7371V18.3601H12.0087V20.3601ZM12.7371 20.3601C13.7351 20.3601 14.5464 19.55 14.5464 18.5511H12.5464C12.5464 18.4445 12.6314 18.3601 12.7371 18.3601V20.3601ZM14.5464 18.5511V18.4094H12.5464V18.5511H14.5464ZM14.5464 18.4094C14.5464 17.4112 13.7357 16.6001 12.7373 16.6001V18.6001C12.6307 18.6001 12.5464 18.5153 12.5464 18.4094H14.5464ZM11.9597 18.5511C11.9597 18.1214 12.3077 17.7734 12.7374 17.7734V19.7734C13.4123 19.7734 13.9597 19.226 13.9597 18.5511H11.9597ZM12.7374 17.7734H12.009V19.7734H12.7374V17.7734ZM12.009 17.7734C12.4374 17.7734 12.7864 18.1204 12.7864 18.5511H10.7864C10.7864 19.227 11.3348 19.7734 12.009 19.7734V17.7734ZM12.7864 18.5511V18.4094H10.7864V18.5511H12.7864ZM12.7864 18.4094C12.7864 18.8387 12.4385 19.1867 12.009 19.1867V17.1867C11.3337 17.1867 10.7864 17.7343 10.7864 18.4094H12.7864ZM12.009 19.1867H12.7371V17.1867H12.009V19.1867ZM12.7371 19.1867C12.3077 19.1867 11.9597 18.8387 11.9597 18.4094H13.9597C13.9597 17.7342 13.4123 17.1867 12.7371 17.1867V19.1867ZM11.9597 18.4094V18.5511H13.9597V18.4094H11.9597Z" fill="#333333" mask="url(#path-1-inside-1)"/>
<path d="M8.20455 7H17M8 17H17" stroke="#333333"/>
<path d="M15 4H10C8.89543 4 8 4.89543 8 6V14.9071V18C8 19.1046 8.89543 20 10 20H15C16.1046 20 17 19.1046 17 18V6C17 4.89543 16.1046 4 15 4Z" stroke="#333333"/>
</svg>
