<svg width="25" height="25" viewBox="0 0 25 25" fill="none" xmlns="http://www.w3.org/2000/svg">
<path d="M8.2359 20.8259L8.33521 21.2231C8.40969 21.4962 8.26072 21.7445 7.98763 21.819L5.80286 22.3652L3.91602 14.6688L6.07596 14.1227C6.34905 14.0482 6.59732 14.1971 6.6718 14.4702L6.77111 14.8675M8.2359 20.8259L6.77111 14.8675M8.2359 20.8259L8.26072 20.8011L9.05519 20.0066H14.1695C15.0881 20.0066 15.9819 19.6342 16.6274 18.9887L21.1707 14.4702C21.5183 14.1227 21.6921 13.6509 21.6424 13.1792C21.5679 12.2606 20.7735 11.5903 19.8549 11.6648C19.4577 11.6896 19.0853 11.8634 18.8122 12.1365L16.3046 14.644M6.77111 14.8675L6.79594 14.8426C7.5904 14.073 8.63313 13.6261 9.75034 13.6261H14.7902C15.4605 13.6261 16.0564 14.0233 16.3046 14.644M16.3046 14.644L14.7902 16.2578H13.0002" stroke="#333333" stroke-miterlimit="10" stroke-linecap="round" stroke-linejoin="round"/>
<path d="M12 14V11.2778M12 5.5V11.2778M12 11.2778L13.3744 10.5M13.3744 10.5C14.0616 11.1481 15.8483 11.9 17.4975 9.72222C17.6121 9.46296 18.0473 8.94444 18.8719 8.94444C19.9027 8.94444 14.4052 6.61111 13.3744 10.5Z" stroke="#333333"/>
<path d="M12 9.02755L10.6256 8.24977M10.6256 8.24977C9.93843 8.89792 8.15174 9.64977 6.50248 7.47199C6.38795 7.21273 5.95273 6.69421 5.1281 6.69421C4.09732 6.69421 9.59484 4.36088 10.6256 8.24977Z" stroke="#333333"/>
<circle cx="12" cy="4" r="1.5" stroke="#333333"/>
</svg>
