<svg width="22" height="22" viewBox="0 0 22 22" fill="none" xmlns="http://www.w3.org/2000/svg">
<path d="M19.5882 1.36719L17.6817 3.36455M17.6817 3.36455L20.5414 6.3606L17.205 9.85599L14.3453 6.85994M17.6817 3.36455L14.3453 6.85994M10.4275 10.9645C10.9197 11.4733 11.3109 12.0791 11.5788 12.747C11.8466 13.4148 11.9856 14.1316 11.988 14.856C11.9903 15.5804 11.8558 16.2982 11.5922 16.9679C11.3287 17.6377 10.9413 18.2462 10.4524 18.7584C9.96346 19.2706 9.38264 19.6765 8.74337 19.9526C8.10411 20.2287 7.41902 20.3696 6.72757 20.3672C6.03612 20.3647 5.35195 20.219 4.71447 19.9385C4.07698 19.6579 3.49877 19.2479 3.01313 18.7323C2.0581 17.6963 1.52965 16.3089 1.5416 14.8687C1.55354 13.4285 2.10493 12.0508 3.07699 11.0324C4.04906 10.014 5.36403 9.43637 6.73869 9.42386C8.11335 9.41134 9.4377 9.96498 10.4265 10.9655L10.4275 10.9645ZM10.4275 10.9645L14.3453 6.85994" stroke="white" stroke-width="1.5"/>
</svg>
