<svg width="22" height="22" viewBox="0 0 22 22" fill="none" xmlns="http://www.w3.org/2000/svg">
<path d="M19.0204 1.33594L17.1139 3.3333M17.1139 3.3333L19.9736 6.32935L16.6373 9.82474L13.7775 6.82869M17.1139 3.3333L13.7775 6.82869M9.8597 10.9333C10.3519 11.4421 10.7432 12.0478 11.011 12.7157C11.2788 13.3836 11.4179 14.1004 11.4202 14.8248C11.4225 15.5492 11.288 16.2669 11.0245 16.9367C10.7609 17.6064 10.3736 18.2149 9.88463 18.7271C9.39569 19.2394 8.81487 19.6452 8.17561 19.9213C7.53634 20.1974 6.85126 20.3383 6.15981 20.3359C5.46836 20.3335 4.78419 20.1878 4.14671 19.9072C3.50922 19.6266 2.93101 19.2167 2.44536 18.701C1.49034 17.6651 0.961886 16.2776 0.973831 14.8374C0.985776 13.3972 1.53716 12.0196 2.50923 11.0012C3.48129 9.98279 4.79627 9.40512 6.17092 9.39261C7.54558 9.38009 8.86994 9.93373 9.85875 10.9343L9.8597 10.9333ZM9.8597 10.9333L13.7775 6.82869" stroke="#AD1E23" stroke-width="1.5"/>
</svg>
