<svg width="18" height="18" viewBox="0 0 18 18" fill="none" xmlns="http://www.w3.org/2000/svg">
<path d="M4.36771 6.12891H0.876221C0.721263 6.12891 0.595703 6.25452 0.595703 6.40942V17.6261C0.595703 17.781 0.721263 17.9066 0.876221 17.9066H4.36771C4.52267 17.9066 4.64823 17.781 4.64823 17.6261V6.40942C4.64823 6.25452 4.52267 6.12891 4.36771 6.12891Z" fill="white"/>
<path d="M2.622 0.550781C1.35176 0.550781 0.318359 1.58306 0.318359 2.8519C0.318359 4.12129 1.35176 5.15397 2.622 5.15397C3.89123 5.15397 4.92379 4.12124 4.92379 2.8519C4.92384 1.58306 3.89123 0.550781 2.622 0.550781Z" fill="white"/>
<path d="M13.2478 5.84766C11.8455 5.84766 10.8089 6.45049 10.1801 7.13546V6.40695C10.1801 6.25205 10.0546 6.12643 9.89962 6.12643H6.55591C6.40095 6.12643 6.27539 6.25205 6.27539 6.40695V17.6236C6.27539 17.7786 6.40095 17.9041 6.55591 17.9041H10.0398C10.1947 17.9041 10.3203 17.7786 10.3203 17.6236V12.074C10.3203 10.2039 10.8282 9.47531 12.1319 9.47531C13.5516 9.47531 13.6644 10.6433 13.6644 12.1702V17.6237C13.6644 17.7786 13.79 17.9042 13.945 17.9042H17.4301C17.5851 17.9042 17.7106 17.7786 17.7106 17.6237V11.4711C17.7106 8.69037 17.1804 5.84766 13.2478 5.84766Z" fill="white"/>
</svg>
