<svg width="20" height="20" viewBox="0 0 20 20" fill="none" xmlns="http://www.w3.org/2000/svg">
<path d="M5.18665 6.83984H1.52649C1.36405 6.83984 1.23242 6.97153 1.23242 7.13391V18.8924C1.23242 19.0549 1.36405 19.1865 1.52649 19.1865H5.18665C5.34909 19.1865 5.48072 19.0549 5.48072 18.8924V7.13391C5.48072 6.97153 5.34909 6.83984 5.18665 6.83984Z" fill="#3D3D3D"/>
<path d="M3.35731 0.992188C2.02571 0.992188 0.942383 2.07433 0.942383 3.40447C0.942383 4.73519 2.02571 5.81775 3.35731 5.81775C4.68785 5.81775 5.77029 4.73513 5.77029 3.40447C5.77035 2.07433 4.68785 0.992188 3.35731 0.992188Z" fill="#3D3D3D"/>
<path d="M14.4968 6.54688C13.0267 6.54688 11.94 7.17883 11.2809 7.89689V7.13319C11.2809 6.97081 11.1493 6.83912 10.9868 6.83912H7.48157C7.31913 6.83912 7.1875 6.97081 7.1875 7.13319V18.8917C7.1875 19.0542 7.31913 19.1858 7.48157 19.1858H11.1337C11.2962 19.1858 11.4278 19.0542 11.4278 18.8917V13.074C11.4278 11.1135 11.9603 10.3498 13.3269 10.3498C14.8152 10.3498 14.9335 11.5742 14.9335 13.1748V18.8918C14.9335 19.0542 15.0651 19.1858 15.2276 19.1858H18.8811C19.0435 19.1858 19.1752 19.0542 19.1752 18.8918V12.442C19.1752 9.52691 18.6193 6.54688 14.4968 6.54688Z" fill="#3D3D3D"/>
</svg>
