<svg width="20" height="20" viewBox="0 0 20 20" fill="none" xmlns="http://www.w3.org/2000/svg">
<path d="M18.1037 10.7626C18.2513 11.0193 18.3989 11.2781 18.5487 11.5348C18.6449 11.7037 18.7433 11.8706 18.8396 12.0396C18.8952 12.138 18.9572 12.2342 19.0021 12.339C18.9807 12.2877 18.9594 12.2364 18.938 12.185C18.9658 12.2578 18.985 12.3305 18.9957 12.4075C18.9872 12.3497 18.9807 12.2941 18.9722 12.2364C18.9807 12.3112 18.9807 12.3861 18.97 12.461C18.9786 12.4032 18.985 12.3476 18.9936 12.2898C18.9829 12.3647 18.9636 12.4353 18.9358 12.5059C18.9572 12.4545 18.9786 12.4032 19 12.3519C18.9936 12.369 18.9251 12.5273 18.9059 12.5251C18.8995 12.523 19.0021 12.4096 18.9636 12.4524C18.9508 12.4652 18.938 12.4824 18.9251 12.4952C18.9016 12.5187 18.7989 12.6043 18.893 12.5316C18.985 12.461 18.8845 12.5337 18.8545 12.5508C18.8438 12.5572 18.8332 12.5636 18.8225 12.5679C18.7091 12.6342 18.5957 12.6984 18.4845 12.7626C18.1658 12.9465 17.8449 13.1305 17.5262 13.3144C17.385 13.3957 17.2545 13.477 17.1283 13.5861C16.8075 13.862 16.6342 14.292 16.6278 14.7112C16.6235 14.9807 16.6278 15.2524 16.6278 15.5219C16.6278 15.7316 16.6278 15.9433 16.6278 16.1529C16.6278 16.2727 16.6342 16.3947 16.6192 16.5123C16.6278 16.4545 16.6342 16.3989 16.6428 16.3412C16.6321 16.416 16.6128 16.4888 16.585 16.5594C16.6064 16.508 16.6278 16.4567 16.6492 16.4053C16.6278 16.4567 16.6 16.5037 16.5722 16.5529C16.523 16.6364 16.6663 16.4503 16.615 16.4995C16.5957 16.5187 16.5786 16.5401 16.5594 16.5594C16.5422 16.5765 16.5251 16.5893 16.508 16.6064C16.431 16.6791 16.6428 16.5209 16.5508 16.5722C16.5016 16.6 16.4567 16.6278 16.4032 16.6492C16.4545 16.6278 16.5059 16.6064 16.5572 16.585C16.4866 16.6128 16.4139 16.6321 16.339 16.6428C16.3968 16.6342 16.4524 16.6278 16.5102 16.6193C16.2385 16.6513 15.9519 16.6278 15.6781 16.6278C15.3615 16.6278 15.0471 16.6257 14.7305 16.6278C14.1401 16.6299 13.6481 16.9465 13.3572 17.4513C13.184 17.7529 13.0107 18.0545 12.8353 18.3561C12.7497 18.5037 12.6663 18.6513 12.5807 18.7968C12.5615 18.8289 12.5444 18.8631 12.523 18.8952C12.4524 19.0064 12.6235 18.784 12.5337 18.8824C12.508 18.9102 12.4781 18.9358 12.4503 18.9615C12.4096 19 12.523 18.8973 12.523 18.9037C12.523 18.908 12.4717 18.938 12.4631 18.9422C12.4267 18.9636 12.3882 18.9829 12.3497 18.9979C12.4011 18.9765 12.4524 18.9551 12.5037 18.9337C12.4332 18.9615 12.3626 18.9807 12.2877 18.9914C12.3455 18.9829 12.4011 18.9765 12.4588 18.9679C12.384 18.9765 12.3091 18.9765 12.2342 18.9701C12.292 18.9786 12.3476 18.985 12.4053 18.9936C12.3283 18.9829 12.2556 18.9636 12.1829 18.9358C12.2342 18.9572 12.2856 18.9786 12.3369 19C12.1059 18.9016 11.8877 18.7497 11.6695 18.6257C11.3893 18.4652 11.1091 18.3027 10.8289 18.1422C10.6278 18.0267 10.4203 17.9476 10.1893 17.9155C9.8492 17.8706 9.51551 17.9455 9.21604 18.1144C8.9615 18.2599 8.70909 18.4053 8.45668 18.5508C8.19572 18.7005 7.9369 18.8802 7.66096 19C7.7123 18.9786 7.76364 18.9572 7.81497 18.9358C7.74225 18.9636 7.66952 18.9829 7.59251 18.9936C7.65027 18.985 7.70588 18.9786 7.76364 18.9701C7.68877 18.9786 7.6139 18.9786 7.53904 18.9679C7.59679 18.9765 7.65241 18.9829 7.71016 18.9914C7.63529 18.9807 7.56471 18.9615 7.49412 18.9337C7.54545 18.9551 7.59679 18.9765 7.64813 18.9979C7.63102 18.9914 7.47273 18.923 7.47487 18.9037C7.477 18.8973 7.59037 19 7.54759 18.9615C7.53262 18.9487 7.51765 18.9358 7.50481 18.923C7.48128 18.8995 7.39572 18.7968 7.46845 18.8909C7.53904 18.9829 7.46631 18.8824 7.4492 18.8524C7.44278 18.8417 7.43636 18.831 7.43208 18.8203C7.36577 18.707 7.3016 18.5936 7.23743 18.4824C7.05348 18.1636 6.86952 17.8449 6.68556 17.5262C6.60428 17.385 6.52299 17.2545 6.4139 17.1283C6.13797 16.8075 5.70802 16.6342 5.28877 16.6278C5.01925 16.6235 4.74759 16.6278 4.47807 16.6278C4.26845 16.6278 4.05668 16.6278 3.84706 16.6278C3.72727 16.6278 3.60535 16.6342 3.4877 16.6193C3.54545 16.6278 3.60107 16.6342 3.65882 16.6428C3.58396 16.6321 3.51123 16.6128 3.44064 16.585C3.49198 16.6064 3.54332 16.6278 3.59465 16.6492C3.54332 16.6278 3.49626 16.6 3.44706 16.5722C3.36364 16.523 3.54973 16.6663 3.50053 16.615C3.48128 16.5957 3.45989 16.5786 3.44064 16.5594C3.42353 16.5422 3.41069 16.5251 3.39358 16.508C3.32086 16.431 3.47914 16.6428 3.42781 16.5508C3.4 16.5016 3.37219 16.4567 3.3508 16.4032C3.37219 16.4545 3.39358 16.5059 3.41497 16.5572C3.38717 16.4866 3.36791 16.4139 3.35722 16.339C3.36578 16.3968 3.37219 16.4524 3.38075 16.5102C3.34866 16.2385 3.37219 15.9519 3.37219 15.6781C3.37219 15.3615 3.37433 15.0471 3.37219 14.7305C3.37005 14.1401 3.05348 13.6481 2.54866 13.3572C2.24706 13.184 1.94545 13.0107 1.64385 12.8353C1.49626 12.7497 1.34866 12.6663 1.20321 12.5807C1.17112 12.5615 1.1369 12.5444 1.10481 12.523C0.993583 12.4524 1.21604 12.6235 1.11765 12.5337C1.08984 12.508 1.06417 12.4781 1.0385 12.4503C1 12.4096 1.10267 12.523 1.09626 12.523C1.09198 12.523 1.06203 12.4717 1.05775 12.4631C1.03636 12.4267 1.01711 12.3882 1.00214 12.3497C1.02353 12.4011 1.04492 12.4524 1.06631 12.5037C1.0385 12.4332 1.01925 12.3626 1.00856 12.2877C1.01711 12.3455 1.02353 12.4011 1.03209 12.4588C1.02353 12.384 1.02353 12.3091 1.02995 12.2342C1.02139 12.292 1.01497 12.3476 1.00642 12.4053C1.01711 12.3283 1.03636 12.2556 1.06417 12.1829C1.04278 12.2342 1.02139 12.2856 1 12.3369C1.0984 12.1059 1.25027 11.8877 1.37433 11.6695C1.53476 11.3893 1.69733 11.1091 1.85775 10.8289C1.97326 10.6278 2.05241 10.4203 2.08449 10.1893C2.12941 9.8492 2.05455 9.51551 1.88556 9.21604C1.74011 8.9615 1.59465 8.70909 1.4492 8.45668C1.29947 8.19572 1.11979 7.9369 1 7.66096C1.02139 7.7123 1.04278 7.76364 1.06417 7.81497C1.03636 7.74225 1.01711 7.66952 1.00642 7.59251C1.01497 7.65027 1.02139 7.70588 1.02995 7.76364C1.02139 7.68877 1.02139 7.6139 1.03209 7.53904C1.02353 7.59679 1.01711 7.65241 1.00856 7.71016C1.01925 7.63529 1.0385 7.5647 1.06631 7.49412C1.04492 7.54545 1.02353 7.59679 1.00214 7.64813C1.00856 7.63102 1.07701 7.47273 1.09626 7.47487C1.10267 7.47701 1 7.59037 1.0385 7.54759C1.05134 7.53262 1.06417 7.51765 1.07701 7.50481C1.10053 7.48128 1.20321 7.39572 1.10909 7.46845C1.01711 7.53904 1.11765 7.46631 1.14759 7.4492C1.15829 7.44278 1.16898 7.43636 1.17968 7.43209C1.29305 7.36578 1.40642 7.3016 1.51765 7.23743C1.83636 7.05348 2.15508 6.86952 2.4738 6.68556C2.61497 6.60428 2.74545 6.52299 2.87166 6.4139C3.19251 6.13797 3.36578 5.70802 3.37219 5.28877C3.37647 5.01925 3.37219 4.74759 3.37219 4.47807C3.37219 4.26845 3.37219 4.05668 3.37219 3.84706C3.37219 3.72727 3.36578 3.60535 3.38075 3.4877C3.37219 3.54545 3.36578 3.60107 3.35722 3.65882C3.36791 3.58396 3.38717 3.51123 3.41497 3.44064C3.39358 3.49198 3.37219 3.54332 3.3508 3.59465C3.37219 3.54332 3.4 3.49626 3.42781 3.44706C3.47701 3.36364 3.33369 3.54973 3.38503 3.50053C3.40428 3.48128 3.42139 3.45989 3.44064 3.44064C3.45775 3.42353 3.47487 3.4107 3.49198 3.39358C3.56898 3.32086 3.35722 3.47914 3.4492 3.42781C3.4984 3.4 3.54332 3.37219 3.59679 3.3508C3.54545 3.37219 3.49412 3.39358 3.44278 3.41497C3.51337 3.38717 3.5861 3.36791 3.66096 3.35722C3.60321 3.36578 3.54759 3.37219 3.48984 3.38075C3.7615 3.34866 4.04813 3.37219 4.32192 3.37219C4.6385 3.37219 4.95294 3.37433 5.26952 3.37219C5.85989 3.37005 6.35187 3.05348 6.64278 2.54866C6.81604 2.24706 6.9893 1.94545 7.16471 1.64385C7.25027 1.49626 7.33369 1.34866 7.41925 1.20321C7.4385 1.17112 7.45561 1.1369 7.477 1.10481C7.54759 0.993583 7.37647 1.21604 7.46631 1.11765C7.49198 1.08984 7.52192 1.06417 7.54973 1.0385C7.59037 1 7.477 1.10267 7.477 1.09626C7.477 1.09198 7.52834 1.06203 7.5369 1.05775C7.57326 1.03636 7.61176 1.01711 7.65027 1.00214C7.59893 1.02353 7.54759 1.04492 7.49626 1.06631C7.56684 1.0385 7.63743 1.01925 7.7123 1.00856C7.65454 1.01711 7.59893 1.02353 7.54118 1.03209C7.61604 1.02353 7.69091 1.02353 7.76577 1.02995C7.70802 1.02139 7.65241 1.01497 7.59465 1.00642C7.67166 1.01711 7.74438 1.03636 7.81711 1.06417C7.76577 1.04278 7.71444 1.02139 7.6631 1C7.89412 1.0984 8.1123 1.25027 8.33048 1.37433C8.61069 1.53476 8.89091 1.69733 9.17112 1.85775C9.37219 1.97326 9.57968 2.05241 9.81069 2.08449C10.1508 2.12941 10.4845 2.05455 10.784 1.88556C11.0385 1.74011 11.2909 1.59465 11.5433 1.4492C11.8043 1.29947 12.0631 1.11979 12.339 1C12.2877 1.02139 12.2364 1.04278 12.185 1.06417C12.2578 1.03636 12.3305 1.01711 12.4075 1.00642C12.3497 1.01497 12.2941 1.02139 12.2364 1.02995C12.3112 1.02139 12.3861 1.02139 12.461 1.03209C12.4032 1.02353 12.3476 1.01711 12.2898 1.00856C12.3647 1.01925 12.4353 1.0385 12.5059 1.06631C12.4545 1.04492 12.4032 1.02353 12.3519 1.00214C12.369 1.00856 12.5273 1.07701 12.5251 1.09626C12.523 1.10267 12.4096 1 12.4524 1.0385C12.4674 1.05134 12.4824 1.06417 12.4952 1.07701C12.5187 1.10053 12.6043 1.20321 12.5315 1.10909C12.461 1.01711 12.5337 1.11765 12.5508 1.14759C12.5572 1.15829 12.5636 1.16898 12.5679 1.17968C12.6342 1.29305 12.6984 1.40642 12.7626 1.51765C12.9465 1.83636 13.1305 2.15508 13.3144 2.4738C13.3957 2.61497 13.477 2.74545 13.5861 2.87166C13.862 3.19251 14.292 3.36578 14.7112 3.37219C14.9807 3.37647 15.2524 3.37219 15.5219 3.37219C15.7315 3.37219 15.9433 3.37219 16.1529 3.37219C16.2727 3.37219 16.3946 3.36578 16.5123 3.38075C16.4545 3.37219 16.3989 3.36578 16.3412 3.35722C16.416 3.36791 16.4888 3.38717 16.5594 3.41497C16.508 3.39358 16.4567 3.37219 16.4053 3.3508C16.4567 3.37219 16.5037 3.4 16.5529 3.42781C16.6364 3.47701 16.4503 3.33369 16.4995 3.38503C16.5187 3.40428 16.5401 3.42139 16.5594 3.44064C16.5765 3.45775 16.5893 3.47487 16.6064 3.49198C16.6791 3.56898 16.5209 3.35722 16.5722 3.4492C16.6 3.4984 16.6278 3.54332 16.6492 3.59679C16.6278 3.54545 16.6064 3.49412 16.585 3.44278C16.6128 3.51337 16.6321 3.5861 16.6428 3.66096C16.6342 3.60321 16.6278 3.54759 16.6192 3.48984C16.6513 3.7615 16.6278 4.04813 16.6278 4.32193C16.6278 4.6385 16.6257 4.95294 16.6278 5.26952C16.6299 5.85989 16.9465 6.35187 17.4513 6.64278C17.7529 6.81604 18.0545 6.9893 18.3561 7.16471C18.5037 7.25027 18.6513 7.33369 18.7968 7.41925C18.8289 7.4385 18.8631 7.45562 18.8952 7.47701C19.0064 7.54759 18.784 7.37647 18.8824 7.46631C18.9102 7.49198 18.9358 7.52193 18.9615 7.54973C19 7.59037 18.8973 7.47701 18.9037 7.47701C18.908 7.47701 18.938 7.52834 18.9422 7.5369C18.9636 7.57326 18.9829 7.61176 18.9979 7.65027C18.9765 7.59893 18.9551 7.54759 18.9337 7.49626C18.9615 7.56685 18.9807 7.63743 18.9914 7.7123C18.9829 7.65455 18.9765 7.59893 18.9679 7.54118C18.9765 7.61604 18.9765 7.69091 18.97 7.76578C18.9786 7.70802 18.985 7.65241 18.9936 7.59465C18.9829 7.67166 18.9636 7.74439 18.9358 7.81711C18.9572 7.76578 18.9786 7.71444 19 7.6631C18.8866 7.93048 18.7112 8.18075 18.5679 8.43102C18.4139 8.6984 18.2556 8.96578 18.1059 9.2353C17.8385 9.71658 17.8385 10.2791 18.1037 10.7626Z" stroke="#AD1E23"/>
<path d="M6.1626 13.834L13.8289 6.16772" stroke="#AD1E23" stroke-linecap="round" stroke-linejoin="round"/>
<circle cx="7.25774" cy="7.26293" r="1.14278" stroke="#AD1E23"/>
<circle cx="12.7337" cy="12.7388" r="1.14278" stroke="#AD1E23"/>
</svg>
