<svg width="83" height="44" viewBox="0 0 83 44" fill="none" xmlns="http://www.w3.org/2000/svg">
<path d="M37.5781 37.5977V39.3594H39.332C39.5247 39.3594 39.6914 39.3242 39.832 39.2539C39.9727 39.1836 40.0794 39.0807 40.1523 38.9453C40.2253 38.8099 40.2617 38.6497 40.2617 38.4648C40.2617 38.194 40.1797 37.9818 40.0156 37.8281C39.8516 37.6745 39.6237 37.5977 39.332 37.5977H37.5781ZM36.6172 40.168V34.5039H39.332C39.668 34.5039 39.9609 34.5573 40.2109 34.6641C40.4635 34.7682 40.6576 34.9284 40.793 35.1445C40.9284 35.3581 40.9961 35.6185 40.9961 35.9258C40.9961 36.2044 40.9271 36.4453 40.7891 36.6484C40.7161 36.7578 40.6341 36.849 40.543 36.9219C40.4544 36.9922 40.3724 37.0456 40.2969 37.082C40.224 37.1185 40.1875 37.1367 40.1875 37.1367C40.5312 37.2148 40.7943 37.3802 40.9766 37.6328C41.1536 37.8854 41.2422 38.2096 41.2422 38.6055C41.2422 38.9076 41.1693 39.1771 41.0234 39.4141C40.8776 39.6484 40.651 39.8333 40.3438 39.9688C40.0365 40.1016 39.651 40.168 39.1875 40.168H36.6172ZM37.5781 35.3281V36.8867H39.1875C39.4297 36.8867 39.6289 36.8164 39.7852 36.6758C39.9414 36.5352 40.0195 36.3411 40.0195 36.0938C40.0195 35.8177 39.9505 35.6211 39.8125 35.5039C39.6771 35.3867 39.4688 35.3281 39.1875 35.3281H37.5781ZM43.3727 37.9258H45.068L44.2281 35.4961L43.3727 37.9258ZM41.568 40.168L43.7086 34.5039H44.7672L46.9078 40.168H45.8453L45.3492 38.6797H43.0953L42.5719 40.168H41.568ZM47.6828 40.168V34.5039H48.7102L51.2844 38.6797V34.5039H52.2297V40.168H51.1984L48.6203 36.0234V40.168H47.6828ZM53.6922 40.168V34.5039H54.6531V37.0859L57.157 34.5039H58.3641L56.1414 36.7734L58.5164 40.168H57.2859L55.4695 37.4727L54.6531 38.2617V40.168H53.6922ZM59.35 40.168V34.5039H60.3109V40.168H59.35ZM61.7969 40.168V34.5039H62.8242L65.3984 38.6797V34.5039H66.3438V40.168H65.3125L62.7344 36.0234V40.168H61.7969ZM72.6656 37.1836H70.2867V37.9609H71.775C71.7698 38.2734 71.706 38.5469 71.5836 38.7812C71.4612 39.013 71.2815 39.1914 71.0445 39.3164C70.8102 39.4414 70.5289 39.5039 70.2008 39.5039C69.8362 39.5039 69.5237 39.4023 69.2633 39.1992C69.0055 38.9961 68.8115 38.7305 68.6812 38.4023C68.551 38.0716 68.4859 37.7214 68.4859 37.3516C68.4859 37.0729 68.5224 36.806 68.5953 36.5508C68.6682 36.2956 68.7763 36.0638 68.9195 35.8555C69.0654 35.6445 69.2464 35.4805 69.4625 35.3633C69.6786 35.2435 69.9247 35.1836 70.2008 35.1836C70.443 35.1836 70.6682 35.2279 70.8766 35.3164C71.0875 35.4023 71.262 35.5312 71.4 35.7031C71.538 35.875 71.624 36.0807 71.6578 36.3203H72.5992C72.568 36.0052 72.4833 35.7253 72.3453 35.4805C72.2073 35.2357 72.0289 35.0326 71.8102 34.8711C71.594 34.7096 71.3479 34.5885 71.0719 34.5078C70.7958 34.4245 70.5055 34.3828 70.2008 34.3828C69.7919 34.3828 69.4208 34.4596 69.0875 34.6133C68.7542 34.7669 68.4703 34.9805 68.2359 35.2539C68.0016 35.5273 67.8219 35.8451 67.6969 36.207C67.5745 36.5664 67.5133 36.9505 67.5133 37.3594C67.5133 37.7578 67.5745 38.1354 67.6969 38.4922C67.8193 38.849 67.9977 39.1641 68.232 39.4375C68.469 39.7083 68.7542 39.9193 69.0875 40.0703C69.4234 40.2214 69.7945 40.2969 70.2008 40.2969C70.4404 40.2969 70.6539 40.2721 70.8414 40.2227C71.0289 40.1732 71.206 40.0911 71.3727 39.9766C71.5419 39.862 71.7164 39.7044 71.8961 39.5039L72.0328 40.168H72.6656V37.1836Z" fill="white"/>
<path d="M21.9561 29.582V21.0156H24.3057C25.3564 21.0156 26.1318 21.2168 26.6318 21.6191C27.1357 22.0215 27.3877 22.627 27.3877 23.4355C27.3877 24.5684 26.8135 25.334 25.665 25.7324L27.9912 29.582H26.8135L24.7393 26.0195H22.9521V29.582H21.9561ZM22.9521 25.1641H24.3174C25.0205 25.1641 25.5361 25.0254 25.8643 24.748C26.1924 24.4668 26.3564 24.0469 26.3564 23.4883C26.3564 22.9219 26.1885 22.5137 25.8525 22.2637C25.5205 22.0137 24.9854 21.8887 24.2471 21.8887H22.9521V25.1641ZM29.734 29.582V21.0156H30.7301V29.582H29.734ZM32.2679 21.0156H33.3225L35.2913 26.5586C35.5179 27.1953 35.6975 27.8145 35.8304 28.416C35.971 27.7832 36.1546 27.1523 36.3811 26.5234L38.3382 21.0156H39.4104L36.3225 29.582H35.3382L32.2679 21.0156ZM40.954 29.582V21.0156H41.9501V29.582H40.954ZM44.6656 29.582V21.0156H45.6617V28.6797H49.441V29.582H44.6656ZM51.26 29.582V21.0156H56.0354V21.9004H52.2561V24.6602H55.8068V25.5391H52.2561V28.6914H56.0354V29.582H51.26ZM57.8543 25.2988C57.8543 24.4082 58.0321 23.6289 58.3875 22.9609C58.7469 22.2891 59.2625 21.7773 59.9344 21.4258C60.6063 21.0703 61.3934 20.8926 62.2957 20.8926C63.2098 20.8926 64.0614 21.0605 64.8504 21.3965L64.4637 22.2754C63.6903 21.9473 62.9461 21.7832 62.2313 21.7832C61.1883 21.7832 60.3739 22.0938 59.7879 22.7148C59.202 23.3359 58.909 24.1973 58.909 25.2988C58.909 26.4551 59.1903 27.332 59.7528 27.9297C60.3192 28.5273 61.1493 28.8262 62.243 28.8262C62.8368 28.8262 63.4168 28.7578 63.9832 28.6211V25.9844H62.0672V25.0938H64.9793V29.2598C64.5262 29.4043 64.0653 29.5137 63.5965 29.5879C63.1278 29.6621 62.5848 29.6992 61.9676 29.6992C60.6707 29.6992 59.661 29.3145 58.9383 28.5449C58.2157 27.7715 57.8543 26.6895 57.8543 25.2988ZM67.4018 29.582V21.0156H72.1772V21.9004H68.3979V24.6602H71.9487V25.5391H68.3979V28.6914H72.1772V29.582H67.4018Z" fill="white"/>
<path d="M9.26963 18.8606C18.0894 16.188 19.2551 8.2913 18.4477 4.81121C21.9696 11.2042 15.8282 17.0498 15.8282 17.0498C15.8282 17.0498 8.71212 23.3006 4.76551 18.8606C2.08673 15.8469 5.41134 11.0695 7.48426 8.98737C14.2968 3.17468 21.953 2.45606 27.3905 3.17484C32.8368 3.89479 33.8851 8.14355 33.7968 10.1748C33.5155 16.3623 27.3879 17.9534 26.9218 18.0498C26.0155 18.2373 23.3237 18.0498 23.578 16.1879C23.778 14.7233 24.6613 14.4084 25.078 14.434C24.0991 14.6845 23.3843 18.2759 27.2262 16.1879C31.0681 14.0999 34.0748 7.66879 28.0614 5.07956C22.0479 2.49034 10.1047 5.07956 5.92873 12.1789C3.06352 17.0498 6.76399 18.9998 9.26963 18.8606Z" fill="white"/>
<path d="M7.95503 27.9184C4.72831 29.8962 3.40093 28.0485 3.14058 26.8774C4.56927 25.7108 3.73587 25.0467 3.14058 24.8605C0.174068 23.8717 0.343203 26.2701 0.798585 27.5929C2.72428 30.7677 6.20598 30.7555 9.10614 29.3159C13.0365 27.365 17.0515 23.3144 20.6346 17.6053C26.9483 7.5456 32.0911 4.56269 35.1488 3.45672C45.7661 -0.238534 47.6831 5.38675 47.3145 8.66129C48.5072 7.12161 48.3217 3.25197 44.8038 1.63456C37.9148 -0.830935 27.2008 2.87367 19.6652 14.6466C14.9735 21.9766 10.0151 26.6172 7.95503 27.9184Z" fill="white"/>
<path d="M33.438 36.2226L13.0974 36.2227" stroke="white"/>
<path d="M33.438 38.6406L13.0974 38.6406" stroke="white"/>
</svg>
