<svg xmlns="http://www.w3.org/2000/svg" width="17.41" height="17.41" viewBox="0 0 17.41 17.41"><g transform="translate(0.25 0.25)"><path d="M6.9,0a6.9,6.9,0,1,0,6.9,6.9A6.911,6.911,0,0,0,6.9,0Zm0,12.531A5.628,5.628,0,1,1,12.531,6.9,5.635,5.635,0,0,1,6.9,12.531Z" transform="translate(0 0)" fill="#053c6d" stroke="#053c6d" stroke-width="0.5"/><g transform="translate(11.041 11.041)"><path d="M356.693,355.619l-4.351-4.351a.759.759,0,0,0-1.073,1.073l4.351,4.351a.759.759,0,0,0,1.073-1.073Z" transform="translate(-351.046 -351.046)" fill="#053c6d" stroke="#053c6d" stroke-width="0.5"/></g></g></svg>