<svg width="19" height="14" viewBox="0 0 19 14" fill="none" xmlns="http://www.w3.org/2000/svg">
<path fill-rule="evenodd" clip-rule="evenodd" d="M0 0H18.6667V14H0V0Z" fill="white"/>
<path fill-rule="evenodd" clip-rule="evenodd" d="M0 0H18.6667V7H0V0Z" fill="#DF0000"/>
<path fill-rule="evenodd" clip-rule="evenodd" d="M4.30329 1.17086C3.8122 1.28959 3.37237 1.59478 3.05765 2.03519C2.74293 2.4756 2.57248 3.02442 2.57491 3.5895C2.57734 4.15458 2.75251 4.70151 3.07101 5.13847C3.38951 5.57544 3.83194 5.87582 4.32403 5.98919C4.04213 6.08096 3.74689 6.10922 3.45526 6.07235C3.16364 6.03547 2.88134 5.9342 2.62458 5.77432C2.36782 5.61445 2.14164 5.39912 1.95901 5.1407C1.77638 4.88227 1.64089 4.58582 1.56032 4.26836C1.4003 3.63022 1.47138 2.94676 1.75802 2.36741C2.04466 1.78806 2.52354 1.35995 3.08995 1.17669C3.50477 1.04253 3.88847 1.03961 4.30588 1.17086H4.30329Z" fill="white"/>
<path fill-rule="evenodd" clip-rule="evenodd" d="M3.9667 3.20719L4.09373 3.64469L3.7567 3.37635L3.42484 3.65052L3.5467 3.20719L3.21484 2.93594L3.62707 2.9301L3.7567 2.4926L3.88633 2.9301H4.29595L3.9667 3.20719ZM4.4204 4.72385L4.55003 5.16427L4.21299 4.89594L3.87855 5.16719L4.00299 4.72677L3.67114 4.4526L4.08336 4.44969L4.2104 4.00927L4.34003 4.44677H4.75484L4.4204 4.72385ZM5.93707 4.71219L6.0641 5.15552L5.72707 4.88427L5.39521 5.15552L5.51707 4.7151L5.18521 4.44385L5.59744 4.43802L5.72707 4.00052L5.8567 4.43802H6.26633L5.93707 4.71219ZM6.38818 3.20719L6.51521 3.6476L6.17818 3.37927L5.84633 3.65052L5.97077 3.2101L5.63633 2.93594L6.05114 2.93302L6.17558 2.4926L6.30521 2.9301H6.72003L6.38818 3.20719ZM5.18781 2.20677L5.31744 2.6501L4.9804 2.37885L4.64595 2.65302L4.7704 2.20969L4.43855 1.93552L4.84818 1.9326L4.97781 1.49219L5.10744 1.92969H5.52225L5.18781 2.20677Z" fill="white"/>
</svg>
