<svg width="22" height="19" viewBox="0 0 22 19" fill="none" xmlns="http://www.w3.org/2000/svg">
<path d="M21.8947 2.88646C21.1004 3.23487 20.2541 3.46581 19.3717 3.57794C20.2795 3.03597 20.9723 2.1843 21.298 1.15775C20.4517 1.66235 19.5172 2.01877 18.5214 2.21767C17.7178 1.36199 16.5724 0.832031 15.3229 0.832031C12.8987 0.832031 10.9471 2.79969 10.9471 5.21187C10.9471 5.55895 10.9765 5.89268 11.0486 6.21038C7.40825 6.03284 4.18711 4.28811 2.02322 1.63031C1.64544 2.28575 1.42385 3.03597 1.42385 3.84359C1.42385 5.36005 2.20477 6.7043 3.36881 7.48255C2.66531 7.4692 1.97517 7.26496 1.39048 6.94325C1.39048 6.9566 1.39048 6.97395 1.39048 6.99131C1.39048 9.11915 2.90827 10.8866 4.89862 11.2937C4.5422 11.3912 4.15374 11.4379 3.7506 11.4379C3.47027 11.4379 3.18726 11.4219 2.92162 11.3631C3.48895 13.0972 5.09886 14.372 7.01312 14.4134C5.52336 15.5788 3.63179 16.2809 1.58404 16.2809C1.22495 16.2809 0.88054 16.2649 0.536133 16.2209C2.47576 17.4717 4.77447 18.1859 7.2534 18.1859C15.3109 18.1859 19.7161 11.5113 19.7161 5.72581C19.7161 5.53225 19.7094 5.34536 19.7001 5.15981C20.5691 4.54308 21.2993 3.77284 21.8947 2.88646Z" fill="#f37e20"/>
</svg>
