<svg width="23" height="19" viewBox="0 0 23 19" fill="none" xmlns="http://www.w3.org/2000/svg">
<path d="M22.0304 2.99193C21.2362 3.34034 20.3898 3.57128 19.5075 3.68341C20.4152 3.14144 21.108 2.28976 21.4337 1.26322C20.5874 1.76781 19.653 2.12424 18.6571 2.32314C17.8535 1.46746 16.7082 0.9375 15.4587 0.9375C13.0345 0.9375 11.0828 2.90516 11.0828 5.31734C11.0828 5.66442 11.1122 5.99814 11.1843 6.31585C7.54399 6.13831 4.32285 4.39358 2.15896 1.73578C1.78119 2.39122 1.55959 3.14144 1.55959 3.94906C1.55959 5.46552 2.34051 6.80977 3.50455 7.58802C2.80106 7.57467 2.11091 7.37043 1.52622 7.04872C1.52622 7.06207 1.52622 7.07942 1.52622 7.09678C1.52622 9.22462 3.04401 10.992 5.03436 11.3992C4.67794 11.4966 4.28948 11.5434 3.88634 11.5434C3.60601 11.5434 3.32301 11.5273 3.05736 11.4686C3.6247 13.2027 5.2346 14.4775 7.14886 14.5189C5.6591 15.6843 3.76753 16.3864 1.71978 16.3864C1.36069 16.3864 1.01628 16.3704 0.671875 16.3263C2.6115 17.5772 4.91021 18.2913 7.38914 18.2913C15.4467 18.2913 19.8519 11.6168 19.8519 5.83128C19.8519 5.63772 19.8452 5.45083 19.8358 5.26528C20.7049 4.64855 21.4351 3.87831 22.0304 2.99193Z" fill="white"/>
</svg>
