<svg width="16" height="12" viewBox="0 0 16 12" fill="none" xmlns="http://www.w3.org/2000/svg">
<path d="M0 0H16V12H0V0Z" fill="#012169"/>
<path d="M0 0V1.34063L14.2109 12H16V10.6594L1.78906 0H0ZM16 0V1.34063L1.78906 12H0V10.6594L14.2109 0H16Z" fill="white"/>
<path d="M6.66719 0V12H9.33281V0H6.66719ZM0 4.00078V7.99922H16V4.00078H0Z" fill="white"/>
<path d="M0 4.8V7.2H16V4.8H0ZM7.2 0V12H8.8V0H7.2ZM0 12L5.33281 7.99922H6.52656L1.19219 12H0ZM0 0L5.33281 4.00078H4.14063L0 0.895313V0ZM9.475 4.00078L14.8078 0H16L10.6672 4.00078H9.475ZM16 12L10.6672 7.99922H11.8594L16 11.1047V12Z" fill="#C8102E"/>
</svg>
