<svg width="16" height="12" viewBox="0 0 16 12" fill="none" xmlns="http://www.w3.org/2000/svg">
<path fill-rule="evenodd" clip-rule="evenodd" d="M0 0H16V0.923438H0V0ZM0 1.84688H16V2.77031H0V1.84688ZM0 3.69141H16V4.61719H0V3.69141ZM0 5.53828H16V6.46172H0V5.53828ZM0 7.38516H16V8.30859H0V7.38516ZM0 9.22969H16V10.1531H0V9.22969ZM0 11.0766H16V12H0V11.0766Z" fill="#BD3D44"/>
<path fill-rule="evenodd" clip-rule="evenodd" d="M0 1H16V1.90951H0V1ZM0 2.81902H16V3.72622H0V2.81902ZM0 4.63573H16V5.54524H0V4.63573ZM0 6.45476H16V7.36427H0V6.45476ZM0 8.27378H16V9.18329H0V8.27378ZM0 10.0905H16V11H0V10.0905Z" fill="white"/>
<path fill-rule="evenodd" clip-rule="evenodd" d="M0 0H9.19953V6.5184H0V0Z" fill="#192F5D"/>
<path fill-rule="evenodd" clip-rule="evenodd" d="M0.766756 0.28125L0.851871 0.53896H1.1214L0.903886 0.697368L0.986637 0.957442L0.766756 0.796669L0.549239 0.955078L0.63199 0.697368L0.412109 0.53896H0.686369L0.766756 0.28125ZM2.30119 0.28125L2.38394 0.53896H2.65584L2.43596 0.697368L2.51871 0.957442L2.30119 0.796669L2.08131 0.955078L2.16406 0.697368L1.94655 0.53896H2.21608L2.30119 0.28125ZM3.83327 0.28125L3.91838 0.53896H4.18555L3.96803 0.697368L4.05078 0.957442L3.8309 0.796669L3.61338 0.955078L3.69614 0.697368L3.47625 0.53896H3.74815L3.83327 0.28125ZM5.3677 0.28125L5.45045 0.53896H5.72235L5.50247 0.697368L5.58758 0.957442L5.3677 0.796669L5.14782 0.955078L5.23294 0.697368L5.01306 0.53896H5.28259L5.3677 0.28125ZM6.89977 0.28125L6.98489 0.53896H7.25442L7.0369 0.697368L7.11966 0.957442L6.89977 0.796669L6.68226 0.955078L6.76501 0.697368L6.54749 0.53896H6.81702L6.89977 0.28125ZM8.43421 0.28125L8.51696 0.53896H8.78886L8.56898 0.697368L8.65409 0.957442L8.43421 0.796669L8.21433 0.955078L8.29945 0.697368L8.07957 0.53896H8.35146L8.43421 0.28125ZM1.53516 0.933799L1.61791 1.19151H1.8898L1.66992 1.34992L1.75031 1.60763L1.53752 1.44922L1.31764 1.60763L1.39566 1.34992L1.18287 1.19151H1.45241L1.53516 0.933799ZM3.06723 0.933799L3.15234 1.19151H3.42188L3.20199 1.34992L3.28711 1.60763L3.06723 1.44922L2.84735 1.60763L2.93246 1.34992L2.71258 1.19151H2.98448L3.06723 0.933799ZM4.60167 0.933799L4.68442 1.19151H4.95631L4.73643 1.34992L4.81918 1.60763L4.60167 1.44922L4.38179 1.60763L4.46454 1.34992L4.24702 1.19151H4.51655L4.60167 0.933799ZM6.13374 0.933799L6.21885 1.19151H6.48838L6.2685 1.34992L6.35362 1.60763L6.13374 1.44922L5.91622 1.60763L5.99897 1.34992L5.77909 1.19151H6.05335L6.13374 0.933799ZM7.66818 0.933799L7.75093 1.19151H8.02282L7.80294 1.34992L7.88569 1.60763L7.66818 1.44922L7.44829 1.60763L7.53105 1.34992L7.31353 1.19151H7.58306L7.66818 0.933799ZM0.766756 1.58398L0.851871 1.84642H1.1214L0.903886 2.00483L0.986637 2.26254L0.766756 2.10177L0.549239 2.26254L0.63199 2.00247L0.412109 1.84406H0.686369L0.766756 1.58398ZM2.30119 1.58398L2.38394 1.84406H2.65584L2.43596 2.00247L2.51871 2.26018L2.30119 2.0994L2.08131 2.26018L2.16406 2.0001L1.94655 1.84169H2.21608L2.30119 1.58398ZM3.83327 1.58398L3.91838 1.84406H4.18555L3.96803 2.00247L4.05078 2.26018L3.8309 2.0994L3.61338 2.26018L3.69614 2.0001L3.47625 1.84169H3.74815L3.83327 1.58398ZM5.3677 1.58398L5.45045 1.84406H5.72235L5.50247 2.00247L5.58758 2.26018L5.3677 2.0994L5.14782 2.26018L5.23294 2.0001L5.01306 1.84169H5.28259L5.3677 1.58398ZM6.89977 1.58398L6.98489 1.84406H7.25442L7.0369 2.00247L7.11966 2.26018L6.89977 2.0994L6.68226 2.26018L6.76501 2.0001L6.54749 1.84169H6.81702L6.89977 1.58398ZM8.43421 1.58398L8.51696 1.84406H8.78886L8.56898 2.00247L8.65409 2.26018L8.43421 2.0994L8.21433 2.26018L8.29945 2.0001L8.07957 1.84169H8.35146L8.43421 1.58398ZM1.53516 2.23653L1.61791 2.49424H1.8898L1.66992 2.65265L1.75267 2.91272L1.53516 2.75195L1.31528 2.91036L1.39803 2.65265L1.18051 2.49424H1.45004L1.53516 2.23653ZM3.06723 2.23653L3.15234 2.49424H3.42188L3.20199 2.65265L3.28711 2.91272L3.06723 2.75195L2.84735 2.91036L2.93246 2.65265L2.71258 2.49424H2.98448L3.06723 2.23653ZM4.60167 2.23653L4.68442 2.49424H4.95631L4.73643 2.65265L4.81918 2.91272L4.60167 2.75195L4.38179 2.91036L4.46454 2.65265L4.24702 2.49424H4.51655L4.60167 2.23653ZM6.13374 2.23653L6.21885 2.49424H6.48838L6.27087 2.65265L6.35362 2.91272L6.13374 2.75195L5.91622 2.91036L5.99897 2.65265L5.77909 2.49424H6.05335L6.13374 2.23653ZM7.66818 2.23653L7.75093 2.49424H8.02282L7.80294 2.65265L7.88569 2.91272L7.66818 2.75195L7.44829 2.91036L7.53105 2.65265L7.31353 2.49424H7.58306L7.66818 2.23653ZM0.766756 2.88908L0.851871 3.14679H1.1214L0.903886 3.3052L0.986637 3.56527L0.766756 3.4045L0.549239 3.56291L0.63199 3.3052L0.412109 3.14679H0.686369L0.766756 2.88908ZM2.30119 2.88908L2.38394 3.14679H2.65584L2.43596 3.3052L2.51871 3.56291L2.30119 3.4045L2.08131 3.56291L2.16406 3.3052L1.94655 3.14679H2.21608L2.30119 2.88908ZM3.83327 2.88908L3.91838 3.14679H4.18555L3.96803 3.3052L4.05078 3.56527L3.8309 3.4045L3.61338 3.56291L3.69614 3.3052L3.47625 3.14679H3.74815L3.83327 2.88908ZM5.3677 2.88908L5.45045 3.14679H5.72235L5.50247 3.3052L5.58758 3.56527L5.3677 3.4045L5.14782 3.56291L5.23294 3.3052L5.01306 3.14679H5.28259L5.3677 2.88908ZM6.89977 2.88908L6.98489 3.14679H7.25442L7.0369 3.3052L7.11966 3.56527L6.89977 3.4045L6.68226 3.56291L6.76501 3.3052L6.54749 3.14679H6.81702L6.89977 2.88908ZM8.43421 2.88908L8.51696 3.14679H8.78886L8.56898 3.3052L8.65409 3.56527L8.43421 3.4045L8.21433 3.56291L8.29945 3.3052L8.07957 3.14679H8.35146L8.43421 2.88908ZM1.53516 3.54163L1.61791 3.79934H1.8898L1.66992 3.95775L1.75267 4.21546L1.53516 4.05469L1.31528 4.21546L1.39803 3.95538L1.18051 3.79698H1.45004L1.53516 3.54163ZM3.06723 3.54163L3.15234 3.79934H3.42188L3.20199 3.95775L3.28711 4.21546L3.06723 4.05469L2.84735 4.21546L2.93246 3.95538L2.71258 3.79698H2.98448L3.06723 3.54163ZM4.60167 3.54163L4.68442 3.79934H4.95631L4.73643 3.95775L4.81918 4.21546L4.60167 4.05469L4.38179 4.21546L4.46454 3.95538L4.24702 3.79698H4.51655L4.60167 3.54163ZM6.13374 3.54163L6.21885 3.79934H6.48838L6.27087 3.95775L6.35362 4.21546L6.13374 4.05469L5.91622 4.21546L5.99897 3.95538L5.77909 3.79698H6.05335L6.13374 3.54163ZM7.66818 3.54163L7.75093 3.79934H8.02282L7.80294 3.95775L7.88569 4.21546L7.66818 4.05469L7.44829 4.21546L7.53105 3.95538L7.31353 3.79698H7.58306L7.66818 3.54163ZM0.766756 4.19182L0.851871 4.45189H1.1214L0.903886 4.6103L0.986637 4.86564L0.766756 4.70723L0.549239 4.86564L0.63199 4.60793L0.412109 4.44952H0.686369L0.766756 4.19182ZM2.30119 4.19182L2.38394 4.45189H2.65584L2.43596 4.6103L2.52107 4.86564L2.30119 4.70723L2.08131 4.86564L2.16643 4.60793L1.94655 4.44952H2.21608L2.30119 4.19182ZM3.83327 4.19182L3.91838 4.45189H4.18555L3.96803 4.6103L4.05078 4.86564L3.8309 4.70723L3.61338 4.86564L3.69614 4.60793L3.47625 4.44952H3.74815L3.83327 4.19182ZM5.3677 4.19182L5.45045 4.45189H5.72235L5.50247 4.6103L5.58758 4.86564L5.3677 4.70723L5.14782 4.86564L5.23294 4.60793L5.01306 4.44952H5.28259L5.3677 4.19182ZM6.89977 4.19182L6.98489 4.45189H7.25442L7.0369 4.6103L7.11966 4.86564L6.89977 4.70723L6.68226 4.86564L6.76501 4.60793L6.54749 4.44952H6.81702L6.89977 4.19182ZM8.43421 4.19182L8.51696 4.45189H8.78886L8.56898 4.6103L8.65409 4.86564L8.43421 4.70723L8.21433 4.86564L8.29945 4.60793L8.07957 4.44952H8.35146L8.43421 4.19182ZM1.53516 4.84436L1.61791 5.10207H1.8898L1.66992 5.26048L1.75267 5.52056L1.53516 5.35978L1.31528 5.51819L1.39803 5.26048L1.18051 5.10207H1.45004L1.53516 4.84436ZM3.06723 4.84436L3.15234 5.10207H3.42188L3.20199 5.26048L3.28711 5.52056L3.06723 5.35978L2.84735 5.51819L2.93246 5.26048L2.71258 5.10207H2.98448L3.06723 4.84436ZM4.60167 4.84436L4.68442 5.10207H4.95631L4.73643 5.26048L4.81918 5.52056L4.60167 5.35978L4.38179 5.51819L4.46454 5.26048L4.24702 5.10207H4.51655L4.60167 4.84436ZM6.13374 4.84436L6.21885 5.10207H6.48838L6.27087 5.26048L6.35362 5.52056L6.13374 5.35978L5.91622 5.51819L5.99897 5.26048L5.77909 5.10207H6.05335L6.13374 4.84436ZM7.66818 4.84436L7.75093 5.10207H8.02282L7.80294 5.26048L7.88569 5.52056L7.66818 5.35978L7.44829 5.51819L7.53105 5.26048L7.31353 5.10207H7.58306L7.66818 4.84436ZM0.766756 5.49691L0.851871 5.75462H1.1214L0.903886 5.91303L0.986637 6.17074L0.766756 6.01233L0.549239 6.17074L0.63199 5.91067L0.412109 5.75226H0.686369L0.766756 5.49691ZM2.30119 5.49691L2.38394 5.75462H2.65584L2.43596 5.91303L2.52107 6.17074L2.30119 6.01233L2.08131 6.17074L2.16643 5.91067L1.94655 5.75226H2.21608L2.30119 5.49691ZM3.83327 5.49691L3.91838 5.75462H4.18555L3.97276 5.91303L4.05551 6.17074L3.83563 6.01233L3.61811 6.17074L3.70086 5.91067L3.48098 5.75226H3.75288L3.83327 5.49691ZM5.3677 5.49691L5.45045 5.75462H5.72235L5.50247 5.91303L5.58758 6.17074L5.3677 6.01233L5.14782 6.17074L5.23294 5.91067L5.01306 5.75226H5.28259L5.3677 5.49691ZM6.89977 5.49691L6.98489 5.75462H7.25442L7.0369 5.91303L7.11966 6.17074L6.89977 6.01233L6.68226 6.17074L6.76501 5.91067L6.54749 5.75226H6.81702L6.89977 5.49691ZM8.43421 5.49691L8.51696 5.75462H8.78886L8.56898 5.91303L8.65409 6.17074L8.43421 6.01233L8.21433 6.17074L8.29945 5.91067L8.07957 5.75226H8.35146L8.43421 5.49691Z" fill="white"/>
</svg>
