<svg width="20" height="21" viewBox="0 0 20 21" fill="none" xmlns="http://www.w3.org/2000/svg">
<path d="M1.01807 20.1402C1.04004 19.0065 1.27974 17.8875 1.72418 16.8439C2.17658 15.7778 2.83172 14.8091 3.65342 13.9915C4.47921 13.1656 5.44144 12.5187 6.51377 12.0676C6.52335 12.0628 6.53292 12.0604 6.5425 12.0557C5.05128 10.9792 4.08188 9.22953 4.08188 7.25554C4.08188 3.98544 6.73877 1.33594 10.018 1.33594C13.2972 1.33594 15.9541 3.98544 15.9541 7.25554C15.9541 9.22953 14.9847 10.9792 13.4935 12.0533C13.5031 12.058 13.5127 12.0604 13.5222 12.0652C14.5913 12.5163 15.5626 13.1697 16.3826 13.9891C17.2051 14.8061 17.8603 15.7749 18.3118 16.8415C18.757 17.8893 18.994 18.9993 19.0179 20.1402" stroke="#AD1E23" stroke-width="1.5"/>
</svg>
