<svg width="21" height="21" viewBox="0 0 21 21" fill="none" xmlns="http://www.w3.org/2000/svg">
<path d="M1.5414 20.1207C1.56337 18.987 1.80307 17.868 2.24751 16.8243C2.69991 15.7582 3.35505 14.7896 4.17675 13.9719C5.00254 13.1461 5.96477 12.4992 7.03711 12.0481C7.04668 12.0433 7.05625 12.0409 7.06583 12.0361C5.57461 10.9596 4.60521 9.21 4.60521 7.236C4.60521 3.9659 7.2621 1.31641 10.5413 1.31641C13.8206 1.31641 16.4775 3.9659 16.4775 7.236C16.4775 9.21 15.5081 10.9596 14.0168 12.0337C14.0264 12.0385 14.036 12.0409 14.0456 12.0457C15.1146 12.4968 16.086 13.1501 16.9059 13.9695C17.7284 14.7866 18.3836 15.7554 18.8352 16.8219C19.2804 17.8698 19.5173 18.9797 19.5413 20.1207" stroke="white" stroke-width="1.5"/>
</svg>
