<svg width="14" height="14" viewBox="0 0 14 14" fill="none" xmlns="http://www.w3.org/2000/svg">
<path d="M12.892 0.710224C12.7995 0.61752 12.6896 0.543973 12.5686 0.493791C12.4477 0.44361 12.318 0.417779 12.187 0.417779C12.0561 0.417779 11.9264 0.44361 11.8054 0.493791C11.6844 0.543973 11.5745 0.61752 11.482 0.710224L6.59202 5.59022L1.70202 0.700223C1.60944 0.607642 1.49953 0.534202 1.37856 0.484097C1.2576 0.433992 1.12795 0.408203 0.997021 0.408203C0.86609 0.408203 0.736441 0.433992 0.615477 0.484097C0.494513 0.534202 0.384602 0.607642 0.29202 0.700223C0.199438 0.792805 0.125998 0.902716 0.0758934 1.02368C0.0257884 1.14464 -9.75509e-10 1.27429 0 1.40522C9.75509e-10 1.53615 0.0257884 1.6658 0.0758934 1.78677C0.125998 1.90773 0.199438 2.01764 0.29202 2.11022L5.18202 7.00022L0.29202 11.8902C0.199438 11.9828 0.125998 12.0927 0.0758934 12.2137C0.0257884 12.3346 0 12.4643 0 12.5952C0 12.7262 0.0257884 12.8558 0.0758934 12.9768C0.125998 13.0977 0.199438 13.2076 0.29202 13.3002C0.384602 13.3928 0.494513 13.4662 0.615477 13.5163C0.736441 13.5665 0.86609 13.5922 0.997021 13.5922C1.12795 13.5922 1.2576 13.5665 1.37856 13.5163C1.49953 13.4662 1.60944 13.3928 1.70202 13.3002L6.59202 8.41022L11.482 13.3002C11.5746 13.3928 11.6845 13.4662 11.8055 13.5163C11.9264 13.5665 12.0561 13.5922 12.187 13.5922C12.318 13.5922 12.4476 13.5665 12.5686 13.5163C12.6895 13.4662 12.7994 13.3928 12.892 13.3002C12.9846 13.2076 13.058 13.0977 13.1081 12.9768C13.1583 12.8558 13.184 12.7262 13.184 12.5952C13.184 12.4643 13.1583 12.3346 13.1081 12.2137C13.058 12.0927 12.9846 11.9828 12.892 11.8902L8.00202 7.00022L12.892 2.11022C13.272 1.73022 13.272 1.09022 12.892 0.710224Z" fill="white"/>
</svg>
