<svg width="25" height="17" viewBox="0 0 25 17" fill="none" xmlns="http://www.w3.org/2000/svg">
<path fill-rule="evenodd" clip-rule="evenodd" d="M10.2536 11.6819V5.12522L16.5571 8.41522L10.2536 11.6819ZM24.0961 3.99005C24.0961 3.99005 23.8686 2.38122 23.1686 1.67305C22.2819 0.744385 21.2868 0.739719 20.8306 0.684886C17.5663 0.449219 12.6674 0.449219 12.6674 0.449219H12.6581C12.6581 0.449219 7.76043 0.449219 4.49493 0.684886C4.03876 0.739719 3.04476 0.743219 2.15693 1.67305C1.45693 2.38122 1.22943 3.99005 1.22943 3.99005C1.22943 3.99005 0.996094 5.87772 0.996094 7.76655V9.53639C0.996094 11.4241 1.22943 13.3129 1.22943 13.3129C1.22943 13.3129 1.45693 14.9206 2.15693 15.6287C3.04359 16.5586 4.21026 16.5282 4.72943 16.6262C6.59609 16.8047 12.6628 16.8596 12.6628 16.8596C12.6628 16.8596 17.5663 16.8526 20.8306 16.6169C21.2868 16.5621 22.2819 16.5586 23.1686 15.6287C23.8686 14.9206 24.0961 13.3129 24.0961 13.3129C24.0961 13.3129 24.3294 11.4241 24.3294 9.53639V7.76655C24.3294 5.87772 24.0961 3.99005 24.0961 3.99005Z" fill="#f37e20"/>
</svg>
